<svg width="1057" height="824" viewBox="0 0 1057 824" fill="none" xmlns="http://www.w3.org/2000/svg">
<g clip-path="url(#clip0_8_13)">
<path fill-rule="evenodd" clip-rule="evenodd" d="M33.4748 98.0577C43.4434 86.791 76.0827 60.1175 106.013 38.7825C135.944 17.4541 163.817 0 167.951 0C181.549 0 429.87 181.706 451.447 207.447C458.203 215.513 441.619 204.758 414.594 183.553C357.362 138.654 200.006 24.9048 179.234 13.4177C166.575 6.42056 160.426 8.66225 124.01 33.5476C101.474 48.9479 67.8093 74.371 49.1986 90.0499C23.3341 111.832 19.6304 113.717 33.4748 98.0577ZM150.482 86.5383C159.954 76.5479 159.456 74.7144 143.284 60.0332L125.914 44.2572L148.664 58.109C170.665 71.5008 171.98 71.5786 188.588 60.5256C205.7 49.1423 205.725 49.1487 195.013 62.3138C180.345 80.3445 180.812 81.6338 209.238 101.472C234.114 118.836 234.292 118.861 253.768 107.031L273.325 95.1552L259.333 111.359L245.341 127.563L268.878 144.764C296.358 164.855 305.092 165.833 325.699 151.152L340.888 140.339L326.018 157.605C317.843 167.11 312.315 175.901 313.734 177.145C315.159 178.389 327.241 187.09 340.594 196.472L364.867 213.537L386.66 200.061L408.452 186.579L393.729 203.242C376.666 222.549 379.873 229.54 414.84 249.236L437.486 261.986L451.398 244.927L465.31 227.868L472.428 244.351C476.341 253.415 478.061 262.394 476.243 264.312C474.431 266.223 472.944 264.39 472.944 260.237C472.944 250.519 450.458 250.363 444.783 260.043C442.375 264.157 446.963 272.676 455.169 279.337C463.258 285.893 467.109 291.232 463.731 291.199C460.353 291.167 452.387 286.982 446.023 281.902C435.987 273.888 431.933 273.959 415.313 282.427L396.168 292.191L409.877 279.589L423.58 266.988L403.735 251.277C372.256 226.359 369.892 225.685 350.673 236.168C323.777 250.836 322.001 258.805 341.644 276.616L359.315 292.644L336.282 278.611L313.249 264.578L292.187 278.306C280.603 285.861 270.088 295.307 268.829 299.298C266.52 306.606 202.807 263.865 90.5966 179.737C57.6563 155.039 30.7108 133.316 30.7108 131.463C30.7108 129.603 37.6268 132.869 46.0784 138.713C59.9535 148.301 63.2027 148.379 79.4732 139.503C106.621 124.692 108.47 116.322 88.5144 98.5631L70.6346 82.6445L93.4219 96.762C117.53 111.696 128.494 109.733 150.482 86.5383ZM228.573 125.237L202.138 104.731C187.599 93.4513 174.173 84.2383 172.305 84.2513C164.278 84.3096 128.985 110.53 128.985 116.432C128.985 119.995 139.856 130.504 153.142 139.775C178.718 157.631 189.362 157.152 214.096 137.022L228.573 125.237ZM521.074 188.827L572.195 152.72C600.314 132.869 623.887 116.62 624.587 116.62C625.288 116.62 648.806 124.2 676.851 133.465C721.056 148.068 732.075 154.884 759.634 184.667C796.813 224.836 804.54 248.083 804.583 319.94C804.619 370.242 804.288 371.337 782.397 393.112C757.681 417.699 747.117 418.14 744.555 394.706C742.891 379.513 743.137 379.409 752.233 391.59C761.428 403.906 761.625 403.874 761.625 389.97C761.625 382.163 763.701 376.235 766.231 376.805C768.762 377.368 775.672 375.6 781.586 372.872C795.75 366.335 795.161 340.854 780.026 305.673C768.246 278.3 738.162 233.46 744.463 252.676C746.22 258.021 749.641 269.683 752.074 278.592C756.348 294.251 755.968 294.147 740.618 275.352L724.741 255.915L730.902 274.154C739.777 300.451 738.254 303.295 724.569 285.971C711.37 269.262 708.366 277.561 719.465 300.076C725.951 313.241 725.238 313.098 709.269 298.028C696.561 286.042 693.146 284.779 696.149 293.169C707.482 324.864 707.297 327.092 694.577 311.886C680.739 295.352 677.508 303.134 688.717 325.991C694.276 337.336 691.788 336.312 676.138 320.814L656.619 301.488L672.269 338.813C694.043 390.754 691.819 392.231 664.886 343.711C636.73 292.988 583.466 230.719 547.682 206.689L521.074 188.827ZM174.302 163.831L147.651 143.462C132.996 132.26 118.697 123.099 115.878 123.099C113.058 123.099 102.113 131.243 91.5486 141.201L72.3422 159.296L97.4635 176.834C128.082 198.208 133.34 198.403 156.25 179.063L174.302 163.831ZM267.515 191.392C292.181 177.379 294.012 168.574 274.861 156.063C267.263 151.094 255.384 143.164 248.474 138.428C237.473 130.893 232.971 131.929 212.26 146.772L188.613 163.728L203.329 175.513C236.742 202.277 244.832 204.279 267.515 191.392ZM623.715 143.028C621.787 139.73 625.079 135.7 631.03 134.061C639.894 131.618 639.537 130.945 629.059 130.329C622.02 129.914 614.416 131.521 612.168 133.899C605.006 141.453 607.746 149.014 617.647 149.014C622.911 149.014 625.644 146.319 623.715 143.028ZM699.03 155.396C707.979 155.305 708.145 154.424 700.203 149.014C688.177 140.812 680.045 140.812 684.848 149.014C686.936 152.577 693.318 155.448 699.03 155.396ZM778.122 189.824C763.086 167.537 762.656 165.03 771.931 154.217C783.699 140.501 791.592 145.451 811.118 178.778C834.605 218.863 804.509 228.944 778.122 189.824ZM602.654 161.972C606.032 161.972 607.088 159.056 605 155.493C602.912 151.93 598.44 149.014 595.062 149.014C591.684 149.014 590.628 151.93 592.716 155.493C594.804 159.056 599.276 161.972 602.654 161.972ZM580.432 170.796C585.499 172.843 589.645 171.697 589.645 168.25C589.645 164.797 585.499 161.972 580.432 161.972C575.364 161.972 571.218 163.119 571.218 164.518C571.218 165.917 575.364 168.742 580.432 170.796ZM241.337 212.047L227.026 200.664C187.814 169.461 181.801 167.887 160.863 183.32C137.787 200.333 136.626 207.654 155.089 219.712C162.687 224.681 174.566 232.611 181.476 237.347C192.476 244.882 196.978 243.845 217.69 229.002L241.337 212.047ZM556.152 188.38C554.223 185.082 557.515 181.052 563.467 179.413C570.641 177.437 571.182 176.355 565.076 176.193C550.661 175.817 540.09 181.933 543.904 188.438C545.815 191.697 550.139 194.366 553.517 194.366C556.895 194.366 558.08 191.671 556.152 188.38ZM331.718 239.686C355.365 221.927 354.794 213.874 328.616 195.986C302.003 177.806 296.057 177.839 274.173 196.316L256.588 211.153L277.244 227.512C310.466 253.836 312.328 254.25 331.718 239.686ZM300.965 259.505C300.965 256.719 290.449 246.754 277.6 237.36C264.751 227.966 251.625 220.334 248.425 220.392C238.456 220.58 202.555 247.208 205.497 252.229C207.039 254.853 219.354 265.083 232.879 274.97L257.46 292.936L279.209 278.76C291.174 270.959 300.965 262.297 300.965 259.505ZM505.964 244.318C503.864 242.096 504.288 235.047 506.916 228.659C511.486 217.561 511.818 217.567 514.361 228.886C517.235 241.656 512.205 250.894 505.964 244.318ZM533.567 271.659C551.594 281.837 556.926 280.101 543.216 268.517C531.565 258.669 531.583 258.585 543.966 264.856C558.891 272.411 603.465 322.201 614.133 343.225C620.073 354.926 620.012 356.882 613.857 352.865C608.255 349.218 607.088 351.667 609.601 361.806C613.765 378.606 605.135 380.277 596.008 364.437C590.836 355.463 590.327 357.154 593.551 372.535L597.623 391.972L584.105 379.325L570.58 366.678L577.434 385.707L584.295 404.735L568.147 388.732L552 372.73L558.388 390.449C565.776 410.955 561.796 412.808 544.703 396.831C532.959 385.849 532.799 385.94 539.611 399.643C550.01 420.557 548.204 424.619 534.366 411.408C526.86 404.243 522.081 402.714 522.081 407.476C522.081 411.758 508.655 398.366 492.249 377.705C475.837 357.044 464.984 338.379 468.135 336.221C471.317 334.044 469.64 327.857 464.345 322.272C455.845 313.312 455.832 311.841 464.21 308.453C469.363 306.36 472.072 307.235 470.229 310.383C468.381 313.532 471.182 317.854 476.451 319.985C483.699 322.92 485.124 320.847 482.305 311.478C476.728 292.942 516.517 262.038 533.567 271.659ZM795.253 310.986C797.028 310.986 798.477 300.782 798.477 288.31C798.477 266.839 791.051 258.578 783.441 271.568C779.781 277.814 789.719 310.986 795.253 310.986ZM513.157 292.042C511.228 288.744 514.52 284.714 520.472 283.075C527.953 281.015 528.451 279.926 522.081 279.557C510.835 278.903 484.246 301.313 489.583 306.943C495.818 313.519 504.711 311.55 500.584 304.507C498.496 300.944 501.26 298.028 506.726 298.028C512.193 298.028 515.085 295.333 513.157 292.042ZM233.469 402.694C233.499 400.362 265.979 375.963 305.639 348.473C345.292 320.983 382.164 298.385 387.569 298.261C399.546 297.976 438.315 327.501 464.91 357.154C487.391 382.215 540.538 465.76 540.452 475.893C540.416 479.625 533.352 470.288 524.747 455.141C509.92 429.05 498.969 418.147 505.227 435.704C506.812 440.162 510.245 450.981 512.856 459.76C517.401 475.057 516.928 474.921 501.364 456.521L485.13 437.324L491.322 455.562C500.35 482.158 498.797 484.678 484.608 466.479L471.974 450.282L475.622 469.718L479.277 489.155L465.942 472.958C452.006 456.022 451.582 460.382 463.731 495.634C466.937 504.918 463.51 503.078 451.656 489.155C435.889 470.638 435.023 472.537 445.759 502.113L450.458 515.07L436.319 502.113L422.173 489.155L426.823 505.352L431.473 521.549L414.576 505.352L397.679 489.155L407.672 509.887C421.676 538.952 420.177 542.444 401.474 524.296C386.144 509.421 385.658 509.337 392.261 522.741C403.317 545.165 400.486 547.724 383.374 530.775L367.508 515.07L380.303 549.324C398.262 597.404 396.438 597.754 369.818 551.313C338.266 496.269 293.735 444.23 260.715 423.822C245.692 414.538 233.432 405.027 233.469 402.694ZM383.883 317.465C389.35 317.465 392.114 314.549 390.026 310.986C384.952 302.33 379.265 303.166 370.34 313.888C364.487 320.918 364.873 323.561 372.189 326.529C377.44 328.654 379.823 327.501 377.698 323.872C375.634 320.348 378.417 317.465 383.883 317.465ZM309.668 323.846C303.188 323.788 293.748 320.788 288.68 317.167C281.955 312.366 284.436 311.763 297.894 314.938C320.478 320.27 325.38 323.976 309.668 323.846ZM328.893 356.83C326.964 353.533 330.256 349.503 336.208 347.864C345.765 345.233 345.827 344.793 336.718 344.132C331.049 343.717 322.266 347.754 317.198 353.099C312.131 358.444 304.472 362.817 300.172 362.817C294.03 362.817 294.104 364.547 300.504 370.915C307.015 377.394 309.207 377.394 311.455 370.915C313.003 366.464 318.353 362.817 323.334 362.817C328.322 362.817 330.821 360.122 328.893 356.83ZM282.538 382.254C294.565 390.456 302.697 390.456 297.894 382.254C295.805 378.69 289.424 375.82 283.711 375.872C274.762 375.963 274.596 376.844 282.538 382.254ZM269.105 393.157C273.534 395.03 278.835 394.797 280.874 392.646C282.913 390.495 279.289 388.966 272.815 389.244C265.66 389.555 264.204 391.091 269.105 393.157ZM258.332 408.169C261.907 408.169 263.129 405.254 261.041 401.69C258.952 398.127 256.029 395.211 254.536 395.211C253.044 395.211 251.828 398.127 251.828 401.69C251.828 405.254 254.757 408.169 258.332 408.169ZM558.934 475.692C558.934 471.144 579.897 452.627 605.516 434.551C631.135 416.481 656.569 401.69 662.03 401.69C667.496 401.69 658.191 409.18 641.343 418.334C624.501 427.489 599.945 444.522 586.783 456.177L562.847 477.376L576.667 497.843C592.366 521.102 599.294 522.832 615.362 507.497C626.332 497.02 626.252 496.178 612.776 480.48L598.858 464.283L614.047 475.096C634.329 489.55 644.611 488.708 665.746 470.872L683.497 455.886L666.452 441.749C646.779 425.422 653.627 422.442 674.818 438.101C686.555 446.77 691.838 447.237 705.246 440.797C721.068 433.19 721.197 433.307 710.639 445.617C700.222 457.758 700.4 458.639 715.362 468.837C746.091 489.781 755.083 496.803 762.234 495.265C766.312 494.387 769.79 490.726 776.359 485.274C785.505 477.687 794.307 472.874 795.922 474.584C797.538 476.288 791.678 482.644 782.901 488.708C764.431 501.478 768.025 509.414 802.402 531.825C822.616 545.003 823.967 545.087 840.096 534.138L856.828 522.78L845.231 536.619C831.565 552.933 836.227 561.628 868.442 579.93C888.22 591.165 890.376 591.23 905.172 581.006C928.205 565.087 933.365 567.815 912.899 585.094L895.259 599.976L924.815 620.255L954.365 640.534L973.16 626.863L991.954 613.193L977.68 629.844L963.412 646.501L983.822 662.432C1016.03 687.57 1017.5 687.784 1037.5 670.032C1047.92 660.78 1056.45 655.196 1056.45 657.612C1056.45 664.156 1033.91 683.495 985.812 718.216C937.357 753.201 916.953 765.531 939.445 746.243C957.049 731.147 952.755 722.103 918.832 702.835C897.845 690.914 897.63 690.933 875.653 706.625C865.406 713.941 859.119 717.36 858.546 721.558C857.746 727.421 868.091 734.804 894.362 756.441C915.743 774.05 857.245 735.534 789.264 687.24C703.612 626.397 636.386 575.201 614.987 554.527C589.559 529.965 558.934 486.894 558.934 475.692ZM698.539 412.082C696.5 414.233 691.199 414.466 686.77 412.594C681.869 410.527 683.325 408.992 690.48 408.681C696.954 408.402 700.578 409.931 698.539 412.082ZM1001.17 605.69C866.096 505.819 772.054 442.216 740.367 429.31C719.969 421.004 711.566 415.872 721.701 417.907C731.835 419.948 756.711 430.249 776.98 440.803C815.03 460.609 1006.91 598.661 1024.84 619.121C1030.4 625.47 1019.75 619.426 1001.17 605.69ZM229.513 491.857C225.201 497.014 222.192 489.006 218.752 463.239L215.294 437.324L223.531 463.239C228.064 477.493 230.754 490.373 229.513 491.857ZM720.374 525.981C750.833 507.127 751.379 502.022 724.95 483.57C711.486 474.169 696.954 466.557 692.655 466.654C681.193 466.906 651.06 487.84 651.109 495.517C651.134 499.145 662.761 509.939 676.949 519.502C701.954 536.36 703.286 536.561 720.374 525.981ZM202.69 541.783C202.69 539.956 214.44 529.68 228.795 518.951C243.149 508.229 256.876 499.32 259.303 499.165C266.323 498.698 303.022 540.247 314.76 561.945L325.49 581.777L295.799 601.874C279.467 612.927 263.485 621.972 260.279 621.972C257.073 621.972 243.781 606.896 230.735 588.47C207.371 555.453 207.205 554.812 219.36 544.737C251.608 518.002 262.568 509.01 261.954 508.135C261.612 507.647 257.676 509.681 251.828 512.57C243.382 516.735 228.874 525.761 219.581 532.628C210.288 539.489 202.69 543.61 202.69 541.783ZM695.529 540.578L671.433 522.968C642.817 502.048 634.562 501.419 614.213 518.608L598.858 531.579L622.917 554.099C636.147 566.487 648.689 576.62 650.784 576.62C652.884 576.62 663.811 568.508 675.063 558.602L695.529 540.578ZM28.7146 534.507C31.0056 527.38 35.8518 519.405 39.4756 516.787C49.0082 509.907 61.4214 510.768 61.4214 518.31C61.4214 527.082 87.9985 526.557 96.4807 517.61C101.462 512.356 109.619 512.608 126.884 518.55C177.035 535.79 222.437 580.047 251.011 639.53C266.225 671.205 267.994 681.694 255.095 663.702C250.132 656.789 245.986 653.673 245.882 656.776C245.771 659.886 241.14 658.454 235.588 653.589C226.547 645.678 225.969 646.449 230.078 660.897C234.537 676.576 234.39 676.667 225.017 664.085C213.679 648.859 211.953 655.617 222.014 675.85L229.046 690L215.171 677.042L201.296 664.085L210.559 686.761C215.657 699.232 225.269 722.556 231.927 738.592C238.585 754.627 245.931 773.493 248.259 780.523C251.803 791.219 253.418 791.751 258.203 783.762C267.465 768.317 264.929 782.92 254.739 803.704C249.586 814.213 240.741 822.817 235.084 822.817C227.087 822.817 226.442 821.087 232.173 815.042C244.512 802.026 240.544 776.052 218.973 728.692C180.155 643.436 82.2986 524.789 50.7956 524.789C45.5625 524.789 37.5101 529.888 32.9097 536.127C25.1399 546.655 24.8389 546.538 28.7146 534.507ZM810.762 551.054C810.762 548.268 800.246 538.304 787.397 528.909C774.548 519.515 761.422 511.883 758.222 511.941C752.031 512.058 712.487 537.448 712.487 541.31C712.487 542.573 724.999 552.68 740.287 563.779L768.08 583.947L789.424 570.037C801.161 562.386 810.762 553.846 810.762 551.054ZM543.579 544.225C551.195 550.892 552.915 550.192 553.504 540.157C554.199 528.346 554.297 528.352 557.177 540.202C558.977 547.594 554.475 558.058 545.716 566.843C521.203 591.437 413.495 667.246 409.324 662.847C403.096 656.277 404.736 627.265 411.099 631.412C414.244 633.465 418.58 632.131 420.736 628.451C422.892 624.771 427.228 623.436 430.373 625.49C433.518 627.537 436.091 624.667 436.091 619.115C436.091 613.562 440.237 609.014 445.305 609.014C450.372 609.014 454.518 605.924 454.518 602.153C454.518 598.382 457.091 596.97 460.236 599.017C463.381 601.071 467.717 599.736 469.873 596.056C472.029 592.376 476.365 591.042 479.51 593.096C482.655 595.143 485.229 590.459 485.229 582.69C485.229 570.86 486.733 569.869 494.442 576.62C502.009 583.248 503.655 582.742 503.655 573.789C503.655 567.802 506.437 564.712 509.84 566.927C513.243 569.15 517.677 566.422 519.698 560.87C521.719 555.317 525.84 552.389 528.868 554.365C531.89 556.334 534.366 553.043 534.366 547.057C534.366 538.103 536.012 537.597 543.579 544.225ZM755.482 590.018C755.482 587.18 744.967 577.177 732.118 567.783C703.532 546.888 701.677 546.849 678.706 566.668L660.279 582.567L678.706 598.829C705.774 622.717 716.357 624.563 737.062 609.014C747.191 601.401 755.482 592.856 755.482 590.018ZM848.02 621.79C880.315 607.686 881.193 599.399 852.737 577.332C838.456 566.247 825.238 557.235 823.371 557.293C816.541 557.513 780.051 584.517 780.051 589.351C780.051 592.091 791.383 602.244 805.234 611.91C827.536 627.479 832.425 628.606 848.02 621.79ZM49.1372 621.972C42.6634 609.5 37.3689 596.38 37.3689 592.817C37.3689 589.254 42.6634 596.542 49.1372 609.014C55.611 621.486 60.9055 634.606 60.9055 638.169C60.9055 641.732 55.611 634.444 49.1372 621.972ZM825.368 636.789L798.717 616.419C784.062 605.217 770.303 596.056 768.147 596.056C765.992 596.056 755.009 604.174 743.739 614.1L723.248 632.144L748.45 649.734C779.148 671.166 784.393 671.373 807.316 652.021L825.368 636.789ZM916.505 668.775C945.33 650.932 947.921 644.285 930.638 632.506C902.357 613.234 893.014 605.843 884.711 606.868C879.069 607.565 873.906 612.148 863.609 619.529L840.238 636.277L869.351 658.111C898.158 679.712 898.655 679.828 916.505 668.775ZM23.7947 722.394C27.0439 715.268 49.5119 686.845 73.718 659.225C119.072 607.479 132.818 595.681 111.468 626.831C91.9785 655.26 17.2841 736.68 23.7947 722.394ZM1048.77 642.238C1042.85 637.346 1038.02 632.241 1038.02 630.9C1038.02 625.568 1043.06 628.995 1051.09 639.789C1058.73 650.064 1058.51 650.291 1048.77 642.238ZM86.8314 683.327C85.4249 681.85 91.7513 670.298 100.891 657.658C116.866 635.558 128.985 632.636 128.985 650.874C128.985 659.608 91.6162 688.374 86.8314 683.327ZM364.603 667.227C360.752 667.279 351.078 661.331 343.106 654.003C331.706 643.527 331.233 642.095 340.888 647.304C361.723 658.545 371.931 667.123 364.603 667.227ZM890.609 684.169C890.609 683.003 880.094 674.36 867.245 664.966C839.015 644.33 829.655 643.78 808.286 661.506C789.522 677.075 792.495 684.415 826.006 705.271L846.417 717.969L868.51 702.135C880.665 693.421 890.609 685.335 890.609 684.169ZM36.8529 748.122C14.8702 760.548 56.3603 723.664 101.345 690.784C148.277 656.485 164.382 647.609 157.079 660.074C153.854 665.575 55.6601 737.49 36.8529 748.122ZM1007.31 690.531C1007.31 689.404 996.315 680.807 982.87 671.425C969.431 662.044 956.305 654.379 953.695 654.392C947.528 654.424 909.036 679.18 909.036 683.113C909.036 684.778 921.609 695.261 936.976 706.417L964.911 726.69L986.113 709.637C997.771 700.256 1007.31 691.659 1007.31 690.531ZM140.354 712.041C100.301 726.768 94.8899 716.058 130.754 693.052C141.128 686.398 151.883 682.433 154.653 684.24C165.752 691.477 158.627 705.323 140.354 712.041ZM38.7754 768.692C36.5151 766.308 69.05 751.303 150.482 717.166C181.85 704.014 198.839 703.651 176.163 716.615C152.54 730.124 41.9509 772.042 38.7754 768.692ZM125.914 749.755L150.482 737.866C163.995 731.322 178.079 725.899 181.777 725.802C191.868 725.55 207.137 745.692 218.39 774.102C227.517 797.141 227.548 800.089 218.721 806.898C213.39 811.012 211.056 816.733 213.537 819.603C226.712 834.874 173.245 796.396 151.477 774.951L125.914 749.755ZM10.7489 758.857C4.83398 753.966 0.00012207 748.861 0.00012207 747.519C0.00012207 742.187 5.04282 745.615 13.0706 756.408C20.7053 766.684 20.4903 766.911 10.7489 758.857Z" fill="url(#paint0_linear_8_13)"/>
<path d="M802.965 144.069C802.953 144.428 803.002 144.87 803.097 145.369C804.416 152.33 807.936 158.779 811.796 164.72V164.72C816.26 171.591 817.02 172.251 819.458 176.032C821.896 179.813 826.425 183.411 828.262 184.34C830.099 185.268 833.045 186.826 835.167 187.003C837.29 187.181 882.375 184.689 914.284 172.093C946.193 159.497 865.23 48.9344 840.189 75.8165C815.149 102.698 803.061 141.156 802.965 144.069Z" fill="url(#paint1_linear_8_13)"/>
<path d="M807.574 128.079C826.481 147.893 834.371 161.41 845 187M828.359 89.9321C847.266 109.746 877.871 154.91 888.5 180.5M816.405 109.142C835.312 128.956 854.664 158.835 865.294 184.425M845 72C863.907 91.8135 902.871 147.41 913.5 173" stroke="url(#paint2_linear_8_13)" stroke-width="2"/>
</g>
<defs>
<linearGradient id="paint0_linear_8_13" x1="528.24" y1="0" x2="528.24" y2="823.096" gradientUnits="userSpaceOnUse">
<stop stop-color="#C0C0C0"/>
<stop offset="0.73" stop-color="#B7B7B7"/>
<stop offset="1" stop-color="#929292"/>
</linearGradient>
<linearGradient id="paint1_linear_8_13" x1="860" y1="-86" x2="878.5" y2="344.5" gradientUnits="userSpaceOnUse">
<stop stop-color="#C0C0C0"/>
<stop offset="0.73" stop-color="#B6B6B6"/>
<stop offset="1" stop-color="#929292"/>
</linearGradient>
<linearGradient id="paint2_linear_8_13" x1="860.247" y1="2.85959" x2="826.278" y2="185.428" gradientUnits="userSpaceOnUse">
<stop stop-opacity="0.5"/>
<stop offset="1"/>
</linearGradient>
<clipPath id="clip0_8_13">
<rect width="1056.48" height="823.1" fill="white"/>
</clipPath>
</defs>
</svg>
