<svg width="36" height="36" viewBox="0 0 36 36" fill="none" xmlns="http://www.w3.org/2000/svg">
<g clip-path="url(#clip0_53_4110)">
<path d="M35.9394 10.5887C35.9391 9.98501 35.7938 9.45156 35.5001 8.99373C35.2115 8.54352 34.7794 8.16619 34.1997 7.86784C29.415 5.41571 24.6255 2.97108 19.8423 0.516452C18.5528 -0.145232 17.3025 -0.121109 16.0225 0.550073C14.118 1.54835 4.58297 6.40374 1.74164 7.86647C0.5715 8.46853 0.00210938 9.38994 0.00182812 10.5876C0 15.519 0.00182812 20.4502 0 25.3817C0.00028125 25.9722 0.139359 26.4952 0.420187 26.9462C0.708891 27.41 1.14708 27.7977 1.74009 28.1028C4.58156 29.5655 14.1179 34.4206 16.022 35.4191C17.3025 36.0906 18.5528 36.1146 19.8428 35.4527C24.6261 32.998 29.4158 30.5534 34.2013 28.1013C34.7943 27.7964 35.2325 27.4084 35.5212 26.9449C35.8016 26.494 35.9409 25.9709 35.9412 25.3803C35.9412 25.3803 35.9412 15.5202 35.9394 10.5887Z" fill="#5C8DBC"/>
<path d="M18.0256 17.9375L0.420197 26.9471C0.7089 27.4109 1.14709 27.7986 1.7401 28.1037C4.58157 29.5665 14.1179 34.4215 16.022 35.42C17.3025 36.0916 18.5528 36.1156 19.8428 35.4536C24.6261 32.9989 29.4158 30.5544 34.2013 28.1022C34.7943 27.7973 35.2325 27.4093 35.5212 26.9458L18.0256 17.9375Z" fill="#1A4674"/>
<path d="M12.8111 20.6062C13.8355 22.1958 15.7614 23.268 17.9706 23.268C20.1935 23.268 22.1303 22.1822 23.1495 20.5756L18.0256 17.9375L12.8111 20.6062Z" fill="#1A4674"/>
<path d="M35.9394 10.5891C35.9391 9.98542 35.7939 9.45197 35.5001 8.99414L18.0256 17.937L35.5212 26.9453C35.8016 26.4944 35.9409 25.9713 35.9412 25.3808C35.9412 25.3808 35.9412 15.5206 35.9394 10.5891Z" fill="#1B598E"/>
<path d="M34.9774 18.5805H33.6102V19.7959H32.2428V18.5805H30.8758V17.3655H32.2428V16.1504H33.6102V17.3655H34.9774V18.5805ZM29.9887 18.5805H28.6217V19.7959H27.2545V18.5805H25.8874V17.3655H27.2545V16.1504H28.6217V17.3655H29.9887V18.5805Z" fill="white"/>
<path d="M23.1496 20.5753C22.1303 22.1818 20.1935 23.2676 17.9706 23.2676C15.7614 23.2676 13.8355 22.1955 12.8111 20.6059C12.2964 19.8083 12.0262 18.9046 12.0272 17.9851C12.0272 15.0678 14.6883 12.7028 17.9706 12.7028C20.1656 12.7028 22.0814 13.7616 23.1109 15.3349L28.3057 12.6762C26.2409 9.50824 22.386 7.37695 17.9706 7.37695C11.3787 7.37695 6.03506 12.1265 6.03506 17.9851C6.03506 19.9072 6.61036 21.7096 7.61583 23.2644C9.67542 26.449 13.5413 28.5935 17.9706 28.5935C22.408 28.5935 26.28 26.4404 28.3366 23.2464L23.1496 20.5753Z" fill="white"/>
</g>
<defs>
<clipPath id="clip0_53_4110">
<rect width="36" height="36" fill="white"/>
</clipPath>
</defs>
</svg>
