<svg width="48" height="48" viewBox="0 0 48 48" fill="none" xmlns="http://www.w3.org/2000/svg">
<path fill-rule="evenodd" clip-rule="evenodd" d="M32.2716 40.9092C32.8398 41.5119 32.8398 42.4893 32.2716 43.092C31.7033 43.6947 30.7818 43.6947 30.2136 43.092L25.9709 38.592C25.4027 37.9893 25.4027 37.0119 25.9709 36.4092L30.2136 31.9092C30.7818 31.3063 31.7033 31.3063 32.2715 31.9092C32.8398 32.5119 32.8398 33.4893 32.2716 34.092L29.0579 37.5006L32.2716 40.9092ZM36.2136 34.092C35.6453 33.4893 35.6453 32.512 36.2136 31.9092C36.7818 31.3065 37.7033 31.3065 38.2716 31.9092L42.5142 36.4092C43.0824 37.012 43.0824 37.9893 42.5142 38.592L38.2716 43.092C37.7033 43.6948 36.7818 43.6948 36.2136 43.092C35.6453 42.4893 35.6453 41.5119 36.2136 40.9092L39.4272 37.5006L36.2136 34.092Z" fill="white"/>
<path fill-rule="evenodd" clip-rule="evenodd" d="M10.5 9C10.5 6.51471 12.5147 4.5 15 4.5H33C35.4853 4.5 37.5 6.51472 37.5 9V27C37.5 27.8284 36.8284 28.5 36 28.5H29.7426C29.3448 28.5 28.9634 28.6581 28.6819 28.9394L22.0896 35.5317C21.6332 35.9883 21.5199 36.6856 21.8086 37.2631L23.8416 41.3292C24.0741 41.7942 24.0494 42.3463 23.7761 42.7886C23.5026 43.2308 23.0199 43.5 22.5 43.5H15C12.5147 43.5 10.5 41.4854 10.5 39V9ZM19.5 7.5C18.6715 7.5 18 8.17158 18 9C18 9.82842 18.6715 10.5 19.5 10.5H28.5C29.3284 10.5 30 9.82842 30 9C30 8.17158 29.3284 7.5 28.5 7.5H19.5Z" fill="url(#paint0_linear_49_8764)"/>
<defs>
<linearGradient id="paint0_linear_49_8764" x1="29.8642" y1="13.2894" x2="11.1471" y2="29.9906" gradientUnits="userSpaceOnUse">
<stop stop-color="#4D62E5"/>
<stop offset="0.0001" stop-color="#87DDEE"/>
<stop offset="0.490049" stop-color="#B6F09C"/>
</linearGradient>
</defs>
</svg>
