<svg width="48" height="48" viewBox="0 0 48 48" fill="none" xmlns="http://www.w3.org/2000/svg">
<rect width="48" height="48" rx="12" fill="#1A1D21"/>
<path fill-rule="evenodd" clip-rule="evenodd" d="M14 18C14 15.7909 15.7909 14 18 14H30C32.2091 14 34 15.7909 34 18V30C34 32.2091 32.2091 34 30 34H18C15.7909 34 14 32.2091 14 30V18ZM28.7071 22.7071C29.0976 22.3166 29.0976 21.6834 28.7071 21.2929C28.3166 20.9024 27.6834 20.9024 27.2929 21.2929L23 25.5858L20.7071 23.2929C20.3166 22.9024 19.6834 22.9024 19.2929 23.2929C18.9024 23.6834 18.9024 24.3166 19.2929 24.7071L21.5858 27C22.3668 27.781 23.6332 27.781 24.4142 27L28.7071 22.7071Z" fill="#CDCECF"/>
</svg>
