<svg width="642" height="361" viewBox="0 0 642 361" fill="none" xmlns="http://www.w3.org/2000/svg">
<path d="M388.751 102.665L388.76 102.665C388.775 102.666 388.789 102.663 388.802 102.656L388.809 102.652C390.013 102.042 391.249 101.498 392.512 101.023C393.764 100.547 395.063 100.086 396.325 99.7164L396.222 99.7313L396.241 99.7318C396.272 99.7327 396.304 99.7286 396.334 99.7197L396.359 99.712C403.028 97.6201 409.953 96.4538 416.939 96.2457C420.421 96.1426 423.906 96.2537 427.374 96.5785L437.886 97.4666C444.897 98.0322 451.921 98.4365 458.941 98.8834C465.963 99.3088 472.982 99.7702 479.991 100.354L479.841 99.8171C478.601 100.718 477.466 101.757 476.459 102.912C475.462 104.082 474.612 105.369 473.929 106.745C473.268 108.131 472.744 109.577 472.365 111.065C472.005 112.555 471.775 114.074 471.675 115.604C471.505 118.662 471.711 121.729 472.288 124.737C472.834 127.758 473.69 130.714 474.844 133.559L475.679 132.485C470.747 131.553 465.817 130.613 460.879 129.717L446.071 126.999L446.88 127.728L446.773 127.41L446.805 127.497C446.089 125.23 444.613 123.279 442.627 121.973C440.653 120.67 438.311 120.038 435.95 120.171C433.578 120.323 431.328 121.274 429.566 122.869C429.336 123.054 429.128 123.264 428.947 123.497L428.375 124.17C428.032 124.643 427.715 125.136 427.427 125.645C427.153 126.15 426.966 126.67 426.734 127.182C426.625 127.439 426.507 127.694 426.408 127.954L426.163 128.747C424.985 132.945 424.532 137.313 424.824 141.663C425.018 145.955 425.62 150.218 426.622 154.395L427.363 153.652L417.408 151.57L407.433 149.576C407.408 149.571 407.382 149.576 407.36 149.59C407.338 149.604 407.323 149.626 407.318 149.651C407.312 149.675 407.316 149.702 407.329 149.724C407.343 149.745 407.364 149.761 407.389 149.768L417.227 152.348L427.083 154.854C427.182 154.879 427.286 154.879 427.385 154.854C427.484 154.828 427.575 154.778 427.65 154.708C427.724 154.638 427.78 154.55 427.812 154.453C427.844 154.356 427.85 154.252 427.831 154.151L427.823 154.111C427.028 149.989 426.574 145.808 426.465 141.611C426.286 137.469 426.813 133.326 428.023 129.361L428.256 128.636C428.349 128.403 428.459 128.177 428.559 127.947C428.772 127.497 428.95 127.013 429.187 126.591C429.455 126.199 429.666 125.763 429.97 125.401L430.437 124.868C430.58 124.681 430.749 124.514 430.937 124.371C432.364 123.114 434.173 122.374 436.072 122.272C437.98 122.163 439.873 122.67 441.47 123.719C443.061 124.768 444.251 126.324 444.849 128.134L444.882 128.221C444.887 128.245 444.894 128.269 444.904 128.293L444.97 128.443C445.037 128.593 445.14 128.724 445.27 128.825C445.399 128.926 445.552 128.994 445.714 129.022L460.558 131.535C465.505 132.384 470.459 133.188 475.412 134C475.549 134.022 475.69 134.008 475.82 133.957C475.949 133.906 476.063 133.821 476.148 133.711C476.234 133.601 476.288 133.47 476.305 133.332C476.323 133.193 476.302 133.053 476.247 132.925C475.07 130.206 474.152 127.381 473.505 124.49C472.833 121.593 472.531 118.623 472.606 115.651C472.654 114.17 472.83 112.695 473.131 111.243C473.449 109.797 473.929 108.391 474.559 107.052C475.202 105.718 476.006 104.469 476.953 103.331C477.914 102.202 479 101.185 480.189 100.299L480.198 100.292C480.245 100.255 480.28 100.205 480.298 100.148C480.317 100.091 480.317 100.03 480.3 99.9727C480.283 99.9154 480.249 99.8645 480.202 99.8268C480.156 99.7892 480.099 99.7664 480.04 99.7615C473.029 99.192 466.029 98.5045 459.032 97.7731C452.034 97.0643 445.039 96.3131 438.03 95.723L427.514 94.8778C423.975 94.5758 420.419 94.5214 416.871 94.7148C413.326 94.9112 409.8 95.3744 406.324 96.1005C402.851 96.8033 399.44 97.7822 396.123 99.0281L396.241 99.0084L396.222 99.0089L396.195 99.0097C396.169 99.0106 396.144 99.0154 396.12 99.0239C394.805 99.4933 393.575 100.015 392.324 100.574C391.079 101.13 389.872 101.767 388.711 102.481L388.76 102.468L388.751 102.469C388.725 102.47 388.701 102.48 388.684 102.499C388.666 102.517 388.656 102.541 388.656 102.567C388.656 102.592 388.666 102.617 388.684 102.635C388.701 102.653 388.725 102.664 388.751 102.665L388.751 102.665Z" fill="url(#paint0_linear_49_8791)"/>
<path d="M345.763 128.866C346.323 126.059 347.447 123.396 349.068 121.037C349.876 119.906 350.806 118.867 351.841 117.939C352.889 117.023 354.013 116.197 355.199 115.47C357.637 114.045 360.238 112.919 362.945 112.118C365.691 111.286 368.499 110.675 371.341 110.289L371.396 110.284C372.368 110.013 373.336 109.724 374.301 109.416C373.289 109.466 372.281 109.538 371.277 109.626L371.331 109.621C368.363 109.491 365.391 109.774 362.5 110.462C359.564 111.123 356.756 112.258 354.185 113.823C351.564 115.402 349.382 117.615 347.84 120.257C346.356 122.876 345.637 125.859 345.763 128.866V128.866Z" fill="url(#paint1_linear_49_8791)"/>
<path d="M438.811 120.773C437.099 120.11 435.368 119.533 433.625 119.01C431.883 118.479 430.133 117.99 428.373 117.54C426.619 117.068 424.845 116.682 423.078 116.265C421.302 115.892 419.528 115.503 417.738 115.189L417.324 115.117L417.064 115.316C416.331 115.883 415.653 116.519 415.042 117.217C414.436 117.881 413.879 118.588 413.376 119.333C412.871 120.069 412.419 120.839 412.021 121.638C411.62 122.428 411.281 123.248 411.007 124.09C411.52 123.373 412.048 122.678 412.591 122.007C413.142 121.336 413.698 120.667 414.278 120.06C414.87 119.444 415.476 118.848 416.105 118.288C416.72 117.747 417.364 117.24 418.034 116.77L417.361 116.896C419.115 117.366 420.886 117.761 422.653 118.179C424.43 118.551 426.199 118.955 427.988 119.271C429.772 119.614 431.564 119.913 433.367 120.169C435.167 120.434 436.98 120.646 438.811 120.773Z" fill="url(#paint2_linear_49_8791)"/>
<path d="M463.735 98.7188C461.636 100.66 459.985 103.034 458.895 105.676C457.756 108.318 457.037 111.123 456.765 113.987C456.537 116.844 456.712 119.72 457.285 122.528C457.355 122.877 457.408 123.229 457.49 123.574L457.783 124.6L458.399 126.634C458.896 127.959 459.478 129.252 460.088 130.513C459.889 129.106 459.561 127.757 459.333 126.393L459.045 124.342L458.886 123.326C458.844 122.986 458.831 122.642 458.801 122.301C458.754 121.618 458.699 120.938 458.628 120.261C458.577 119.582 458.604 118.9 458.587 118.222C458.557 116.868 458.601 115.513 458.72 114.164C458.969 111.466 459.507 108.802 460.323 106.219C461.145 103.587 462.291 101.068 463.735 98.7188V98.7188Z" fill="url(#paint3_linear_49_8791)"/>
<path d="M410.477 119.165C409.009 118.616 407.532 118.078 406.045 117.566C406.127 118.173 406.171 118.785 406.175 119.397C407.448 119.797 408.73 120.178 410.022 120.549C410.896 120.8 411.769 121.051 412.652 121.302C412.773 121.116 412.894 120.94 413.014 120.772C413.135 120.596 413.265 120.429 413.377 120.271C412.41 119.89 411.444 119.527 410.477 119.165Z" fill="url(#paint4_linear_49_8791)"/>
<path d="M395.832 116.024C396.966 116.415 398.081 116.805 399.215 117.186H399.224C399.577 116.627 399.988 116.107 400.451 115.634L400.032 115.495C398.778 115.086 397.523 114.677 396.269 114.277C396.12 114.909 395.962 115.495 395.832 116.024Z" fill="url(#paint5_linear_49_8791)"/>
<path d="M402.216 109.899C400.348 109.295 398.48 108.691 396.603 108.105C396.806 108.729 396.904 109.383 396.891 110.038C398.462 110.596 400.051 111.126 401.631 111.665C405.134 112.808 408.656 113.932 412.206 114.945C413.851 115.428 415.505 115.89 417.168 116.33C419.083 116.841 420.997 117.324 422.939 117.742C422.168 117.398 421.396 117.054 420.616 116.72C420.607 116.72 420.607 116.72 420.597 116.711C417.977 115.595 415.319 114.564 412.661 113.57C409.204 112.269 405.71 111.079 402.216 109.899Z" fill="url(#paint6_linear_49_8791)"/>
<path d="M387.599 106.609C387.757 106.674 387.915 106.739 388.073 106.795C388.479 106.455 388.937 106.182 389.429 105.987C388.928 105.847 388.426 105.708 387.924 105.568C387.803 105.959 387.692 106.312 387.599 106.609Z" fill="url(#paint7_linear_49_8791)"/>
<path d="M475.544 133.24C496.523 114.091 480.012 100.062 480.012 100.062C465.348 110.68 475.544 133.24 475.544 133.24Z" fill="url(#paint8_linear_49_8791)"/>
<path d="M427.224 154.251C444.537 159.415 445.891 128.011 445.891 128.011C445.871 127.946 445.851 127.882 445.83 127.819C443.227 119.823 432.07 118.789 428.22 126.265C423.004 136.396 427.224 154.251 427.224 154.251Z" fill="url(#paint9_linear_49_8791)"/>
<path d="M414.166 150.501C417.033 157.566 419.967 164.558 422.666 171.615C425.425 178.585 427.749 185.719 429.627 192.976C430.07 194.757 430.41 196.562 430.646 198.382C430.902 200.144 430.894 201.934 430.622 203.693C430.479 204.521 430.199 205.319 429.791 206.053C429.376 206.751 428.801 207.34 428.112 207.771C426.541 208.567 424.755 208.835 423.02 208.533C419.334 207.893 415.787 206.616 412.54 204.759C411.715 204.302 410.889 203.851 410.075 203.374L407.667 201.876C406.042 200.912 404.52 199.784 402.961 198.725C401.408 197.655 399.931 196.476 398.416 195.36L396.217 193.588C395.485 192.998 394.732 192.436 394.026 191.814C392.606 190.579 391.128 189.422 389.748 188.147L387.643 186.278L385.592 184.35C382.869 181.77 380.249 179.087 377.733 176.303C375.199 173.54 372.767 170.684 370.393 167.782C365.633 161.962 361.2 155.882 357.116 149.569C355.067 146.407 353.101 143.185 351.218 139.905C349.332 136.628 347.527 133.289 345.883 129.867L345.513 129.999C347.737 137.345 350.735 144.435 354.455 151.148C358.128 157.914 362.367 164.357 367.127 170.407C371.938 176.434 377.279 182.018 383.087 187.092L385.267 188.987L387.508 190.809C388.992 192.035 390.546 193.175 392.099 194.31C393.654 195.441 395.27 196.491 396.871 197.551C398.519 198.545 400.123 199.597 401.799 200.535C403.472 201.476 405.123 202.445 406.83 203.317C408.522 204.211 410.208 205.113 411.937 205.949C415.379 207.728 419.051 209.022 422.848 209.796C424.873 210.223 426.981 210.01 428.88 209.188C429.86 208.696 430.708 207.976 431.353 207.089C431.96 206.212 432.423 205.243 432.725 204.221C433.261 202.259 433.496 200.228 433.423 198.197C433.369 196.227 433.171 194.263 432.831 192.321C432.137 188.506 431.12 184.758 429.789 181.115C428.514 177.48 427.057 173.929 425.476 170.441C424.701 168.69 423.859 166.97 423.011 165.257C422.17 163.54 421.284 161.846 420.371 160.167C418.552 156.806 416.635 153.501 414.512 150.315L414.166 150.501Z" fill="url(#paint10_linear_49_8791)"/>
<path d="M460.353 104.132C455.002 103.327 449.636 102.715 444.264 102.171C438.894 101.614 433.515 101.173 428.135 100.753C422.752 100.37 417.367 100.012 411.973 99.7678C406.581 99.5113 401.183 99.3244 395.771 99.3323C401.122 100.14 406.488 100.753 411.86 101.297C417.23 101.852 422.609 102.294 427.989 102.711C433.373 103.092 438.758 103.45 444.151 103.694C449.544 103.949 454.941 104.137 460.353 104.132Z" fill="url(#paint11_linear_49_8791)"/>
<path d="M394.624 194.286C395.393 187.461 396.134 180.625 396.796 173.782L397.05 171.215L397.177 169.932C397.19 169.832 397.194 169.703 397.214 169.627C397.237 169.566 397.256 169.504 397.27 169.44C397.334 169.269 397.408 169.101 397.489 168.937C398.248 167.5 399.243 166.063 400.166 164.628C402.05 161.756 403.868 158.812 405.492 155.746C406.296 154.208 407.053 152.64 407.715 151.022C408.37 149.384 408.919 147.752 409.487 146.141C410.629 142.906 411.761 139.668 412.85 136.415L414.504 131.542L414.917 130.324C415.078 129.863 415.186 129.385 415.239 128.899C415.354 127.912 415.215 126.911 414.835 125.993C414.456 125.015 413.736 124.208 412.808 123.72C411.849 123.298 410.766 123.255 409.775 123.598C408.073 124.237 406.519 125.218 405.21 126.48L406.232 127.054C406.468 125.397 406.62 123.729 406.686 122.056C406.718 121.222 406.723 120.378 406.69 119.542C406.619 118.7 406.585 117.844 406.443 117.008C406.321 116.118 406.003 115.265 405.513 114.512C405.22 114.09 404.788 113.783 404.292 113.646C403.816 113.549 403.323 113.576 402.861 113.725C401.192 114.293 399.791 115.457 398.927 116.994L399.224 116.832H399.215L399.022 116.833L398.92 116.99C398.349 117.905 397.833 118.853 397.373 119.828C397.159 120.292 396.909 120.738 396.624 121.162C396.448 121.37 396.45 121.367 396.2 121.382C396.122 121.389 396.043 121.373 395.974 121.335C395.905 121.297 395.849 121.238 395.814 121.167C395.641 120.722 395.571 120.244 395.611 119.768C395.624 119.246 395.665 118.725 395.734 118.208C395.867 117.161 396.073 116.126 396.35 115.108C396.633 114.072 396.861 113.022 397.033 111.962C397.228 110.878 397.243 109.769 397.077 108.68C396.973 108.115 396.764 107.575 396.459 107.088C396.139 106.596 395.703 106.191 395.189 105.908C394.173 105.411 393.043 105.194 391.916 105.277L391.974 105.28C391.493 105.234 391.008 105.25 390.531 105.328C390.06 105.404 389.598 105.534 389.156 105.717C388.263 106.091 387.488 106.702 386.916 107.484L386.952 107.443C386.878 107.521 386.835 107.624 386.831 107.733L386.837 109.317L387.564 107.907L387.574 107.889L387.583 107.871L387.598 107.826C388.9 104.377 389.776 100.781 390.209 97.1196C390.301 96.171 390.288 95.2151 390.171 94.2693C390.083 93.2147 389.626 92.2248 388.88 91.4738C388.445 91.0971 387.913 90.8498 387.344 90.7601C386.793 90.6957 386.235 90.7526 385.708 90.9267C384.767 91.2796 383.907 91.8191 383.18 92.5127C381.814 93.8107 380.614 95.2724 379.606 96.8645C378.59 98.4114 377.657 100.011 376.81 101.656C375.046 104.919 373.654 108.369 372.66 111.942C371.713 115.48 370.819 118.986 369.605 122.369C368.379 125.711 366.901 129.073 364.549 131.509C363.458 132.705 361.996 133.498 360.399 133.759C359.578 133.844 358.75 133.811 357.94 133.659C357.076 133.54 356.221 133.365 355.38 133.134C353.693 132.677 352.066 132.021 350.534 131.18C349.019 130.353 347.619 129.329 346.371 128.136L345.367 127.14L344.833 128.359C344.253 129.728 343.901 131.183 343.791 132.666C343.67 134.103 343.722 135.55 343.944 136.975C344.417 139.796 345.437 142.496 346.948 144.924C347.698 146.157 348.611 147.283 349.661 148.273C350.73 149.222 351.898 150.055 353.144 150.755C354.37 151.445 355.626 152.016 356.777 152.659C357.901 153.203 358.863 154.033 359.566 155.065C360.152 156.184 360.462 157.427 360.471 158.69C360.56 160.034 360.611 161.389 360.627 162.748C360.661 165.468 360.609 168.196 360.512 170.922C360.407 173.648 360.301 176.377 360.124 179.102C359.931 181.821 359.781 184.561 359.323 187.241L359.504 187.282C360.088 184.592 360.358 181.868 360.674 179.149C360.962 176.427 361.225 173.701 361.405 170.968C361.586 168.235 361.723 165.498 361.774 162.75C361.8 161.377 361.789 159.997 361.741 158.613C361.765 157.135 361.431 155.674 360.768 154.353C359.962 153.093 358.838 152.068 357.511 151.38C356.287 150.669 355.062 150.084 353.917 149.411C352.791 148.749 351.739 147.97 350.778 147.087C349.854 146.181 349.057 145.156 348.407 144.038C347.064 141.785 346.172 139.292 345.783 136.698C345.588 135.42 345.546 134.123 345.659 132.835C345.758 131.588 346.051 130.363 346.525 129.205L344.988 129.428C347.759 132.09 351.159 134.008 354.871 135.003C355.788 135.258 356.72 135.453 357.662 135.587C358.143 135.639 358.584 135.729 359.099 135.748L359.872 135.771C360.131 135.756 360.389 135.726 360.648 135.702C362.687 135.4 364.558 134.403 365.947 132.881C368.652 129.992 370.094 126.453 371.342 122.983C372.556 119.484 373.427 115.902 374.329 112.387C374.558 111.512 374.788 110.64 375.065 109.814C375.347 108.971 375.666 108.132 375.999 107.297C376.666 105.628 377.402 103.979 378.206 102.366C378.998 100.754 379.876 99.1836 380.834 97.6632C381.755 96.1555 382.849 94.7608 384.094 93.5077C384.672 92.9205 385.36 92.4535 386.119 92.1337C386.457 92.0108 386.817 91.9602 387.176 91.9852C387.513 92.0304 387.832 92.1673 388.097 92.381C388.646 92.9367 388.987 93.6646 389.062 94.4422C389.192 95.3046 389.227 96.1786 389.167 97.0487C388.829 100.648 388.053 104.193 386.856 107.604L386.88 107.542L386.871 107.561L387.605 107.735C387.606 107.782 387.597 107.829 387.58 107.872C387.562 107.916 387.535 107.955 387.501 107.988L387.538 107.946C388.013 107.255 388.67 106.709 389.436 106.367C390.206 106.029 391.046 105.886 391.884 105.95L391.921 105.954L391.943 105.953C392.949 105.866 393.96 106.046 394.875 106.474C395.299 106.717 395.663 107.051 395.939 107.454C396.216 107.857 396.397 108.317 396.47 108.8C396.631 109.82 396.624 110.859 396.449 111.877C396.288 112.921 396.073 113.956 395.804 114.977C395.52 116.014 395.301 117.068 395.148 118.133C395.071 118.67 395.022 119.212 395.002 119.754C394.947 120.343 395.038 120.936 395.269 121.48C395.364 121.638 395.496 121.77 395.655 121.865C395.813 121.959 395.993 122.013 396.177 122.022C396.362 122.03 396.545 121.993 396.712 121.913C396.878 121.833 397.022 121.713 397.131 121.564C397.45 121.11 397.73 120.63 397.968 120.13C398.428 119.183 398.942 118.265 399.509 117.379L399.215 117.537L399.224 117.537L399.415 117.539L399.521 117.376C400.292 116.001 401.559 114.973 403.062 114.499C403.368 114.367 403.711 114.347 404.03 114.444C404.349 114.54 404.623 114.747 404.805 115.026C405.19 115.679 405.429 116.408 405.506 117.162C405.616 117.958 405.62 118.759 405.666 119.562C405.674 120.377 405.644 121.185 405.588 121.999C405.474 123.624 405.279 125.243 405.003 126.848L404.718 128.503L406.025 127.422C407.224 126.326 408.631 125.482 410.163 124.939C410.815 124.72 411.526 124.755 412.154 125.038C412.741 125.392 413.187 125.937 413.418 126.583C413.689 127.261 413.783 127.998 413.69 128.724C413.647 129.092 413.561 129.454 413.435 129.802L413.01 131.018L411.309 135.882C410.163 139.12 409.059 142.373 407.965 145.629C407.41 147.261 406.881 148.89 406.279 150.446C405.659 152.013 404.94 153.547 404.172 155.06C402.626 158.087 400.833 160.991 399.033 163.91C398.144 165.387 397.209 166.801 396.409 168.424C396.305 168.646 396.215 168.875 396.14 169.109C396.105 169.255 396.074 169.402 396.048 169.548C396.027 169.682 396.029 169.77 396.019 169.883L395.928 171.165L395.747 173.729C395.249 180.567 394.829 187.413 394.439 194.269L394.624 194.286Z" fill="url(#paint12_linear_49_8791)"/>
<path d="M383.427 117.742L387.65 107.901L386.781 107.572L383.427 117.742Z" fill="url(#paint13_linear_49_8791)"/>
<path d="M245.83 84.1238C249.256 85.5753 252.826 86.7957 256.401 87.9154C259.995 89.0235 263.648 89.9318 267.342 90.636C271.057 91.3965 274.84 91.7734 278.631 91.7607C280.555 91.7432 282.473 91.5464 284.36 91.1729C286.304 90.8025 288.165 90.0821 289.853 89.0469L289.771 89.0941C292.607 87.6787 295.459 86.2932 298.28 84.8465L299.221 84.3637L298.655 83.5485C298.586 83.4391 298.501 83.3413 298.402 83.2589C298.354 83.2141 298.303 83.1731 298.249 83.1363C298.164 83.0775 298.063 83.0006 297.988 82.9609C297.831 82.8749 297.663 82.7685 297.515 82.7049C297.208 82.5533 296.905 82.4235 296.607 82.3102C296.006 82.0764 295.411 81.8692 294.814 81.692C293.622 81.314 292.423 81.0282 291.224 80.7477C288.826 80.1947 286.42 79.7269 284.005 79.3443C281.593 78.9389 279.177 78.5829 276.758 78.2547C274.341 77.9122 271.918 77.6269 269.498 77.3238L269.826 77.5043L264.876 71.8396C263.224 69.949 261.632 68.0295 259.923 66.1599C256.472 62.4605 252.474 59.3126 248.068 56.826C245.858 55.5967 243.561 54.5296 241.196 53.6332C238.821 52.7613 236.39 52.0481 233.92 51.4985C228.971 50.2399 223.844 49.8335 218.758 50.2967C213.611 50.9329 208.704 52.8455 204.484 55.8607C200.286 58.9204 196.866 62.9242 194.5 67.5489C193.329 69.8594 192.416 72.292 191.777 74.8025L191.363 76.7002C191.248 77.3288 191.137 77.9526 191.041 78.5827C190.841 79.8395 190.678 81.1034 190.552 82.3743C190.28 84.9255 190.218 87.4948 190.366 90.0562C190.504 92.6568 190.979 95.2285 191.777 97.7074L192.098 98.6712L193.068 98.3796L206.178 94.4386L219.324 90.6116C223.706 89.3362 228.099 88.0985 232.51 86.9429C234.713 86.3482 236.922 85.7874 239.14 85.2606C240.252 85.0298 241.36 84.732 242.48 84.5556L244.159 84.2548L245.83 84.1238ZM245.876 83.9229L244.125 83.941L242.415 84.1364C241.27 84.2571 240.153 84.4969 239.019 84.6716C236.768 85.0849 234.521 85.527 232.288 86.0204C227.822 87.0115 223.376 88.0847 218.942 89.1957C214.506 90.3036 210.095 91.5027 205.683 92.6935C201.273 93.8993 196.863 95.0905 192.472 96.3734L193.763 97.0455C192.29 92.4763 192.3 87.4671 192.743 82.59C192.861 81.3652 193.017 80.1427 193.211 78.9225C193.302 78.3131 193.41 77.7022 193.519 77.0978L193.905 75.3209C194.477 72.962 195.304 70.6724 196.371 68.4926C198.537 64.1217 201.7 60.3209 205.604 57.3965C209.543 54.495 214.131 52.6003 218.97 51.8776C223.882 51.2973 228.855 51.5358 233.689 52.5834C238.593 53.4577 243.328 55.1054 247.715 57.465C252.102 59.843 256.065 62.9316 259.442 66.6052C262.725 70.3536 265.855 74.3034 269.028 78.1782L269.148 78.325L269.356 78.3589C271.758 78.7501 274.162 79.1265 276.555 79.5534C278.951 79.9664 281.342 80.4067 283.719 80.8944C286.097 81.3766 288.466 81.8923 290.806 82.4715C291.974 82.7639 293.136 83.0828 294.268 83.4377C294.837 83.6085 295.393 83.8063 295.926 84.016C296.197 84.1198 296.452 84.2315 296.692 84.3511C296.824 84.4074 296.91 84.4715 297.022 84.5295C297.062 84.5535 297.102 84.5797 297.139 84.608C297.161 84.6215 297.178 84.6337 297.166 84.6262C297.153 84.6042 297.2 84.6801 297.074 84.498L297.449 83.2003C294.61 84.6109 291.802 86.083 288.978 87.5249L288.933 87.5479L288.896 87.5722C285.966 89.4813 282.219 90.0315 278.595 90.1615C276.755 90.2065 274.913 90.1521 273.079 89.9985C271.237 89.8657 269.395 89.6431 267.561 89.3571C263.888 88.8076 260.254 87.974 256.636 87.0777C253.012 86.1677 249.45 85.1099 245.876 83.9229Z" fill="url(#paint14_linear_49_8791)"/>
<path d="M223.185 55.834C224.945 57.9013 226.748 59.9108 228.559 61.9093L233.987 67.8956C235.796 69.8875 237.591 71.8918 239.371 73.9085C241.138 75.9377 242.886 77.9787 244.622 80.0676C243.333 77.675 241.855 75.3892 240.202 73.2321C238.576 71.0562 236.809 68.9962 235.005 66.9738C233.176 64.9728 231.29 63.027 229.323 61.1637C227.371 59.2819 225.322 57.5029 223.185 55.834Z" fill="url(#paint15_linear_49_8791)"/>
<path d="M213.789 56.8223C212.333 59.463 211.046 62.1932 209.935 64.9963C208.806 67.7919 207.82 70.6419 206.976 73.5464C206.139 76.4527 205.487 79.4089 205.023 82.3974C204.561 85.3887 204.433 88.422 204.639 91.4417C204.965 88.4679 205.445 85.5131 206.078 82.5892C206.72 79.678 207.475 76.7938 208.295 73.9258C209.105 71.0538 210.023 68.2107 210.939 65.3619C211.881 62.5223 212.81 59.6715 213.789 56.8223Z" fill="url(#paint16_linear_49_8791)"/>
<path d="M269.427 77.8418C267.803 77.8643 266.182 77.9778 264.571 78.1819C262.965 78.3626 261.373 78.6224 259.784 78.8974C258.199 79.1977 256.618 79.5149 255.051 79.9109C253.471 80.2866 251.914 80.7516 250.386 81.3037C252.01 81.283 253.631 81.1701 255.242 80.9656C256.849 80.7846 258.441 80.5249 260.029 80.2482C261.614 79.9462 263.195 79.6289 264.762 79.2326C266.342 78.8566 267.899 78.3923 269.427 77.8418V77.8418Z" fill="url(#paint17_linear_49_8791)"/>
<path d="M269.427 90.3125C269.401 91.6915 269.474 93.0681 269.572 94.4469C269.661 95.8385 269.859 97.2209 270.166 98.5812C270.317 99.3161 270.595 100.019 270.985 100.66C271.336 101.185 271.678 101.798 272.019 102.381C272.705 103.56 273.368 104.76 274.03 105.959C275.367 108.349 276.683 110.751 277.976 113.166C278.61 114.377 279.267 115.577 279.875 116.796C280.18 117.404 280.47 118.018 280.754 118.627C280.892 118.932 281.025 119.239 281.139 119.541C281.19 119.689 281.251 119.844 281.281 119.977C281.3 120.032 281.312 120.09 281.319 120.149C281.321 120.16 281.33 120.215 281.33 120.191C281.33 120.168 281.336 120.145 281.347 120.125C281.358 120.105 281.374 120.088 281.394 120.075L281.646 119.898C281.177 120.01 280.695 120.055 280.214 120.033C279.7 120.013 279.188 119.944 278.687 119.828C278.176 119.708 277.674 119.557 277.182 119.375C276.685 119.185 276.2 118.969 275.727 118.727L275.657 118.692L275.611 118.701C275.128 118.792 274.676 119.001 274.294 119.31C273.929 119.618 273.669 120.03 273.548 120.492C273.729 120.074 274.034 119.723 274.422 119.485C274.792 119.252 275.212 119.112 275.648 119.078L275.532 119.052C276.444 119.684 277.44 120.185 278.491 120.54C279.03 120.714 279.585 120.837 280.148 120.907C280.743 120.989 281.347 120.969 281.936 120.848L282.105 120.81L282.188 120.67C282.254 120.558 282.3 120.435 282.323 120.308C282.331 120.237 282.332 120.165 282.325 120.094C282.322 119.981 282.307 119.869 282.281 119.759C282.243 119.572 282.196 119.387 282.139 119.205C282.031 118.858 281.911 118.525 281.786 118.196C281.536 117.54 281.253 116.905 280.967 116.274C280.389 115.015 279.793 113.77 279.154 112.548C277.898 110.093 276.556 107.688 275.173 105.306C274.471 104.121 273.756 102.944 273.019 101.774C272.643 101.187 272.275 100.622 271.827 100.029C271.482 99.5064 271.221 98.9327 271.054 98.3289C270.319 95.6995 269.776 93.0203 269.427 90.3125V90.3125Z" fill="url(#paint18_linear_49_8791)"/>
<path d="M265.965 123.917C269.922 117.818 275.629 120.492 275.629 120.492C275.629 120.492 277.835 150.789 264.317 151.613C254.029 152.24 245.177 145.993 238.953 139.266C235.729 135.764 233.689 131.337 233.121 126.611C232.277 119.71 231.009 109.285 230.686 106.278C230.192 101.662 228.321 89.5761 221.619 90.3127C221.619 90.3127 207.607 90.4521 214.86 114.686C214.86 114.686 216.839 129.852 203.98 128.039C203.98 128.039 206.618 120.456 203.156 114.686C199.694 108.916 195.142 101.621 195.357 96.6137C195.357 96.6137 240.742 83.1985 245.853 84.0228C242.708 85.6832 240.178 88.3086 238.635 91.5132C237.092 94.7178 236.617 98.3328 237.28 101.827C238.788 111.627 246.041 124.777 249.406 130.48C249.94 131.389 250.71 132.137 251.634 132.644C252.559 133.151 253.604 133.398 254.658 133.358C256.607 133.28 258.843 132.995 259.907 132.16C262.009 130.512 265.965 123.917 265.965 123.917Z" fill="url(#paint19_linear_49_8791)"/>
<path d="M266.45 94.8546C265.487 94.1127 264.384 93.5718 263.207 93.2642C262.01 92.9275 260.76 92.8231 259.523 92.9569C258.259 93.108 257.057 93.5872 256.036 94.3467C255.043 95.0881 254.281 96.0959 253.838 97.2531C254.671 96.4701 255.603 95.7978 256.608 95.2529C257.573 94.7605 258.618 94.4443 259.694 94.3192C260.795 94.1971 261.906 94.1951 263.008 94.3133C264.134 94.431 265.272 94.6158 266.45 94.8546Z" fill="url(#paint20_linear_49_8791)"/>
<path d="M227.554 111.718C225.344 112.585 222.787 112.487 221.15 111.036C220.325 110.305 219.666 109.405 219.217 108.397C218.735 107.361 218.348 106.283 218.063 105.176C217.425 102.945 217.048 100.647 216.94 98.3288C216.889 97.1653 216.918 95.9996 217.027 94.8401C217.082 94.2571 217.166 93.6774 217.28 93.1031C217.332 92.8127 217.405 92.53 217.482 92.2451C217.543 91.9568 217.66 91.6836 217.828 91.4414C217.414 91.8857 217.102 92.4156 216.916 92.9935C216.695 93.5582 216.51 94.1363 216.363 94.7243C216.082 95.9068 215.916 97.1136 215.868 98.3279C215.779 100.764 216.074 103.2 216.74 105.545C217.401 107.824 218.362 110.346 220.504 111.887C221.558 112.642 222.841 113.006 224.134 112.919C225.362 112.837 226.545 112.422 227.554 111.718V111.718Z" fill="url(#paint21_linear_49_8791)"/>
<path d="M243.546 143.666C242.738 144.16 241.991 144.747 241.32 145.415C240.646 146.065 240.024 146.768 239.461 147.517C238.89 148.272 238.398 149.084 237.993 149.941C237.52 150.803 237.329 151.791 237.445 152.768C237.841 151.952 238.334 151.188 238.913 150.49C239.457 149.774 240.026 149.071 240.561 148.339C241.105 147.612 241.635 146.868 242.141 146.099C242.668 145.323 243.138 144.51 243.546 143.666V143.666Z" fill="url(#paint22_linear_49_8791)"/>
<path d="M203.98 128.039C203.107 129.39 202.311 130.79 201.597 132.232C201.236 132.921 200.879 133.602 200.477 134.25C200.08 134.933 199.595 135.56 199.034 136.117C199.907 135.995 200.71 135.575 201.307 134.928C201.918 134.329 202.426 133.634 202.812 132.871C203.2 132.13 203.499 131.345 203.702 130.533C203.924 129.721 204.018 128.88 203.98 128.039Z" fill="url(#paint23_linear_49_8791)"/>
<path d="M183.864 124.573C183.864 124.573 199.764 125.735 202.449 132.082L201.966 132.992L200.191 132.082C191.661 127.835 186.838 133.476 192.766 134.47C198.704 135.455 234.063 151.652 234.063 151.652C249.397 155.992 258.383 179.308 258.383 179.308C255.911 178.248 253.392 177.3 250.893 176.287C248.328 175.46 245.782 174.568 243.189 173.834C237.983 172.364 232.675 171.286 227.308 170.609C221.931 169.917 216.501 169.749 211.092 170.108C209.744 170.256 208.397 170.34 207.049 170.535C205.721 170.767 204.373 170.925 203.054 171.241C200.399 171.763 197.814 172.589 195.35 173.704C197.913 172.938 200.542 172.412 203.202 172.133C204.522 171.929 205.86 171.864 207.18 171.743C208.508 171.66 209.837 171.613 211.166 171.548C216.487 171.467 221.807 171.769 227.085 172.449L231.043 172.961L234.983 173.658L236.954 173.983L238.905 174.41C240.215 174.698 241.516 174.977 242.827 175.247C245.429 175.851 248.012 176.538 250.623 177.161C253.207 177.867 255.771 178.648 258.383 179.308C298.602 185.905 337.845 210.633 340.475 209.974C343.114 209.314 345.428 188.545 345.428 183.201C345.428 177.867 346.413 167.766 354.331 167.766C362.239 167.766 361.254 174.689 361.254 174.689C346.413 178.648 380.703 181.621 390.925 182.932C401.147 184.251 395.544 180.302 395.544 180.302C395.544 180.302 398.508 177.133 401.686 181.073C402.678 182.344 403.347 183.837 403.635 185.423C403.923 187.009 403.822 188.642 403.341 190.18C402.328 193.563 400.832 198.692 399.828 202.716C398.174 209.314 392.245 256.791 390.266 261.409C388.286 266.018 347.407 278.22 260.362 271.956C253.309 270.851 246.283 269.68 239.258 268.509C232.242 267.31 225.226 266.083 218.266 264.662C214.781 263.965 211.296 263.24 207.849 262.413C204.382 261.623 200.944 260.746 197.534 259.783C194.121 258.825 190.759 257.696 187.46 256.4C184.12 255.198 181.008 253.435 178.26 251.187C179.471 252.512 180.86 253.663 182.386 254.607C183.896 255.582 185.467 256.461 187.089 257.237C190.344 258.752 193.689 260.065 197.106 261.168C203.928 263.335 210.869 265.11 217.894 266.483C224.91 267.877 231.96 269.029 239.044 269.94C246.126 270.879 253.234 271.566 260.362 271.956C260.362 271.956 263.531 291.22 265.185 308.551H141.201C141.331 291.629 141.359 269.206 140.838 249.041C139.853 210.141 140.838 191.834 140.838 191.834C142.621 191.637 144.382 191.276 146.098 190.756C147.817 190.264 149.499 189.678 151.181 189.074C154.536 187.866 157.807 186.454 161.059 185.004C164.293 183.527 167.49 181.984 170.64 180.321C173.791 178.676 176.904 176.938 179.915 175.024C176.56 176.25 173.28 177.616 170.018 179.02C166.756 180.404 163.531 181.872 160.288 183.313L150.633 187.736C147.39 189.167 144.221 190.71 140.838 191.834C140.838 191.834 124.52 199.259 123.033 180.46C121.556 161.67 139.361 121.116 183.864 124.573ZM177.015 185.627C175.375 187.175 173.944 188.93 172.759 190.849C172.174 191.806 171.672 192.819 171.142 193.823C170.687 194.854 170.315 195.914 169.888 196.964C169.686 197.49 169.524 198.03 169.404 198.581L168.977 200.216C168.689 201.303 168.477 202.408 168.345 203.525L168.122 205.197L168.011 206.034L167.973 206.87L167.862 210.225L167.834 211.061L167.89 211.897L168.011 213.57C168.085 214.685 168.159 215.791 168.28 216.897C168.652 219.09 169.005 221.283 169.479 223.448C170.083 225.586 170.668 227.714 171.337 229.814C171.068 227.611 170.724 225.446 170.38 223.281C170.12 221.106 169.971 218.923 169.72 216.757L169.637 213.496L169.59 211.869L169.562 211.061L169.618 210.252L169.785 207.009L169.823 206.201L169.943 205.402L170.185 203.803C170.73 199.531 172.023 195.389 174.004 191.565C175.03 189.669 176.258 187.89 177.666 186.258C179.07 184.588 180.714 183.135 182.544 181.947C180.492 182.825 178.618 184.072 177.015 185.627V185.627ZM153.588 147.991C154.253 149.391 155.392 150.51 156.803 151.15C157.502 151.469 158.235 151.706 158.987 151.857C159.739 151.963 160.496 152.028 161.255 152.052C162.007 152.015 162.769 152.015 163.513 151.922L165.724 151.559C166.459 151.411 167.165 151.197 167.89 151.011L169.981 150.444C171.344 150.088 172.733 149.84 174.134 149.701C176.975 149.436 179.833 149.427 182.674 149.673C188.417 150.191 194.108 151.18 199.69 152.628C202.496 153.334 205.302 154.096 208.081 154.923C210.878 155.713 213.629 156.624 216.398 157.544C211.133 155.007 205.673 152.897 200.071 151.234C194.455 149.501 188.675 148.358 182.823 147.824C179.861 147.588 176.884 147.632 173.93 147.954C172.443 148.145 170.973 148.452 169.534 148.874L165.399 150.147L163.327 150.593C162.63 150.714 161.933 150.741 161.236 150.834C160.539 150.881 159.842 150.825 159.154 150.806C158.473 150.715 157.803 150.55 157.156 150.314C155.842 149.862 154.731 148.956 154.025 147.758C153.66 147.151 153.384 146.493 153.207 145.807C152.998 145.113 152.885 144.394 152.873 143.67C152.711 145.148 152.958 146.643 153.588 147.991H153.588Z" fill="url(#paint24_linear_49_8791)"/>
<path d="M317.4 308.555C299.101 308.024 280.802 307.668 262.503 307.487C253.354 307.36 244.204 307.332 235.055 307.258L207.607 307.182L180.159 307.254C171.009 307.33 161.86 307.355 152.71 307.483C134.412 307.662 116.113 308.019 97.814 308.555C116.113 309.089 134.412 309.446 152.71 309.627C161.86 309.754 171.009 309.779 180.159 309.855L207.607 309.928L235.055 309.852C244.204 309.777 253.354 309.749 262.503 309.622C280.802 309.442 299.101 309.086 317.4 308.555Z" fill="url(#paint25_linear_49_8791)"/>
<path d="M263.369 104.806C259.781 104.806 259.775 99.2305 263.369 99.2305C266.956 99.2305 266.962 104.806 263.369 104.806Z" fill="url(#paint26_linear_49_8791)"/>
<defs>
<linearGradient id="paint0_linear_49_8791" x1="414.577" y1="108.185" x2="438.149" y2="154.386" gradientUnits="userSpaceOnUse">
<stop stop-color="#4D62E5"/>
<stop offset="0.0001" stop-color="#87DDEE"/>
<stop offset="0.490049" stop-color="#B6F09C"/>
</linearGradient>
<linearGradient id="paint1_linear_49_8791" x1="353.823" y1="113.799" x2="361.586" y2="128.487" gradientUnits="userSpaceOnUse">
<stop stop-color="#4D62E5"/>
<stop offset="0.0001" stop-color="#87DDEE"/>
<stop offset="0.490049" stop-color="#B6F09C"/>
</linearGradient>
<linearGradient id="paint2_linear_49_8791" x1="418.87" y1="117.139" x2="420.913" y2="125.297" gradientUnits="userSpaceOnUse">
<stop stop-color="#4D62E5"/>
<stop offset="0.0001" stop-color="#87DDEE" stop-opacity="0.866667"/>
<stop offset="0.490049" stop-color="#B6F09C"/>
</linearGradient>
<linearGradient id="paint3_linear_49_8791" x1="458.667" y1="105.884" x2="466.798" y2="108.214" gradientUnits="userSpaceOnUse">
<stop stop-color="#4D62E5"/>
<stop offset="0.0001" stop-color="#87DDEE"/>
<stop offset="0.490049" stop-color="#B6F09C"/>
</linearGradient>
<linearGradient id="paint4_linear_49_8791" x1="408.118" y1="118.408" x2="409.352" y2="121.53" gradientUnits="userSpaceOnUse">
<stop stop-color="#4D62E5"/>
<stop offset="0.0001" stop-color="#87DDEE"/>
<stop offset="0.490049" stop-color="#B6F09C"/>
</linearGradient>
<linearGradient id="paint5_linear_49_8791" x1="397.138" y1="114.933" x2="398.247" y2="117.201" gradientUnits="userSpaceOnUse">
<stop stop-color="#4D62E5"/>
<stop offset="0.0001" stop-color="#87DDEE"/>
<stop offset="0.490049" stop-color="#B6F09C"/>
</linearGradient>
<linearGradient id="paint6_linear_49_8791" x1="404.051" y1="110.277" x2="406.497" y2="118.893" gradientUnits="userSpaceOnUse">
<stop stop-color="#4D62E5"/>
<stop offset="0.0001" stop-color="#87DDEE"/>
<stop offset="0.490049" stop-color="#B6F09C"/>
</linearGradient>
<linearGradient id="paint7_linear_49_8791" x1="388.116" y1="105.845" x2="388.601" y2="106.778" gradientUnits="userSpaceOnUse">
<stop stop-color="#9DE8EE"/>
<stop offset="0.0001" stop-color="#9DE8EE"/>
<stop offset="0.490049" stop-color="#FA7C0B"/>
<stop offset="1" stop-color="#9F8CED"/>
</linearGradient>
<linearGradient id="paint8_linear_49_8791" x1="476.079" y1="107.54" x2="489.58" y2="114.931" gradientUnits="userSpaceOnUse">
<stop stop-color="#4D62E5"/>
<stop offset="0.0001" stop-color="#87DDEE"/>
<stop offset="0.490049" stop-color="#B6F09C"/>
</linearGradient>
<linearGradient id="paint9_linear_49_8791" x1="431.348" y1="128.777" x2="447.088" y2="141.012" gradientUnits="userSpaceOnUse">
<stop stop-color="#4D62E5"/>
<stop offset="0.0001" stop-color="#87DDEE"/>
<stop offset="0.490049" stop-color="#B6F09C"/>
</linearGradient>
<linearGradient id="paint10_linear_49_8791" x1="370.378" y1="147.929" x2="406.879" y2="199.54" gradientUnits="userSpaceOnUse">
<stop stop-color="#4D62E5"/>
<stop offset="0.0001" stop-color="#87DDEE"/>
<stop offset="0.490049" stop-color="#B6F09C"/>
</linearGradient>
<linearGradient id="paint11_linear_49_8791" x1="414.035" y1="100.414" x2="414.302" y2="105.036" gradientUnits="userSpaceOnUse">
<stop stop-color="#4D62E5"/>
<stop offset="0.0001" stop-color="#87DDEE"/>
<stop offset="0.490049" stop-color="#B6F09C"/>
</linearGradient>
<linearGradient id="paint12_linear_49_8791" x1="363.963" y1="114.072" x2="413.648" y2="158.321" gradientUnits="userSpaceOnUse">
<stop stop-color="#4D62E5"/>
<stop offset="0.0001" stop-color="#87DDEE"/>
<stop offset="0.490049" stop-color="#B6F09C"/>
</linearGradient>
<linearGradient id="paint13_linear_49_8791" x1="384.621" y1="109.864" x2="388.709" y2="112.052" gradientUnits="userSpaceOnUse">
<stop stop-color="#4D62E5"/>
<stop offset="0.0001" stop-color="#87DDEE"/>
<stop offset="0.490049" stop-color="#B6F09C"/>
</linearGradient>
<linearGradient id="paint14_linear_49_8791" x1="221.095" y1="61.0553" x2="235.587" y2="102.956" gradientUnits="userSpaceOnUse">
<stop stop-color="#4D62E5"/>
<stop offset="0.0001" stop-color="#87DDEE"/>
<stop offset="0.490049" stop-color="#B6F09C"/>
</linearGradient>
<linearGradient id="paint15_linear_49_8791" x1="229.248" y1="61.2955" x2="240.854" y2="74.5278" gradientUnits="userSpaceOnUse">
<stop stop-color="#4D62E5"/>
<stop offset="0.0001" stop-color="#87DDEE"/>
<stop offset="0.490049" stop-color="#B6F09C"/>
</linearGradient>
<linearGradient id="paint16_linear_49_8791" x1="207.158" y1="64.6244" x2="217.451" y2="68.167" gradientUnits="userSpaceOnUse">
<stop stop-color="#4D62E5"/>
<stop offset="0.0001" stop-color="#87DDEE"/>
<stop offset="0.490049" stop-color="#B6F09C"/>
</linearGradient>
<linearGradient id="paint17_linear_49_8791" x1="255.771" y1="78.622" x2="256.234" y2="81.9013" gradientUnits="userSpaceOnUse">
<stop stop-color="#4D62E5"/>
<stop offset="0.0001" stop-color="#87DDEE"/>
<stop offset="0.490049" stop-color="#B6F09C"/>
</linearGradient>
<linearGradient id="paint18_linear_49_8791" x1="273.072" y1="97.2187" x2="285.486" y2="103.958" gradientUnits="userSpaceOnUse">
<stop stop-color="#4D62E5"/>
<stop offset="0.0001" stop-color="#87DDEE"/>
<stop offset="0.490049" stop-color="#B6F09C"/>
</linearGradient>
<linearGradient id="paint19_linear_49_8791" x1="218.091" y1="99.2372" x2="248.018" y2="145.072" gradientUnits="userSpaceOnUse">
<stop stop-color="#4D62E5"/>
<stop offset="0.0001" stop-color="#87DDEE"/>
<stop offset="0.490049" stop-color="#B6F09C"/>
</linearGradient>
<linearGradient id="paint20_linear_49_8791" x1="257.405" y1="93.8814" x2="258.455" y2="97.8051" gradientUnits="userSpaceOnUse">
<stop stop-color="#4D62E5"/>
<stop offset="0.0001" stop-color="#87DDEE"/>
<stop offset="0.490049" stop-color="#B6F09C"/>
</linearGradient>
<linearGradient id="paint21_linear_49_8791" x1="219.162" y1="96.2846" x2="228.924" y2="103.136" gradientUnits="userSpaceOnUse">
<stop stop-color="#4D62E5"/>
<stop offset="0.0001" stop-color="#87DDEE"/>
<stop offset="0.490049" stop-color="#B6F09C"/>
</linearGradient>
<linearGradient id="paint22_linear_49_8791" x1="239.147" y1="145.717" x2="243.5" y2="149.499" gradientUnits="userSpaceOnUse">
<stop stop-color="#4D62E5"/>
<stop offset="0.0001" stop-color="#87DDEE"/>
<stop offset="0.490049" stop-color="#B6F09C"/>
</linearGradient>
<linearGradient id="paint23_linear_49_8791" x1="200.435" y1="129.86" x2="204.232" y2="132.86" gradientUnits="userSpaceOnUse">
<stop stop-color="#4D62E5"/>
<stop offset="0.0001" stop-color="#87DDEE"/>
<stop offset="0.490049" stop-color="#B6F09C"/>
</linearGradient>
<linearGradient id="paint24_linear_49_8791" x1="202.375" y1="165.875" x2="274.296" y2="307.219" gradientUnits="userSpaceOnUse">
<stop stop-color="#4D62E5"/>
<stop offset="0.0001" stop-color="#87DDEE"/>
<stop offset="0.490049" stop-color="#B6F09C"/>
</linearGradient>
<linearGradient id="paint25_linear_49_8791" x1="159.915" y1="307.8" x2="159.94" y2="310.453" gradientUnits="userSpaceOnUse">
<stop stop-color="#4D62E5"/>
<stop offset="0.0001" stop-color="#87DDEE"/>
<stop offset="0.490049" stop-color="#B6F09C"/>
</linearGradient>
<linearGradient id="paint26_linear_49_8791" x1="262.199" y1="100.487" x2="264.829" y2="103.761" gradientUnits="userSpaceOnUse">
<stop stop-color="#4D62E5"/>
<stop offset="0.0001" stop-color="#87DDEE"/>
<stop offset="0.490049" stop-color="#B6F09C"/>
</linearGradient>
</defs>
</svg>
