<svg width="49" height="48" viewBox="0 0 49 48" fill="none" xmlns="http://www.w3.org/2000/svg">
<path fill-rule="evenodd" clip-rule="evenodd" d="M19.8334 19.5C19.8334 17.0146 21.848 15 24.3334 15C26.8187 15 28.8334 17.0146 28.8334 19.5V21C28.8334 23.4853 26.8187 25.5 24.3334 25.5C21.848 25.5 19.8334 23.4853 19.8334 21V19.5ZM19.1492 30.8158C19.6717 30.2935 20.3803 30 21.119 30H27.5476C28.2865 30 28.9951 30.2935 29.5174 30.8158C30.0398 31.3383 30.3334 32.0469 30.3334 32.7856C30.3334 33.6141 31.0049 34.2856 31.8334 34.2856C32.6618 34.2856 33.3334 33.6141 33.3334 32.7856C33.3334 31.2513 32.7238 29.7796 31.6387 28.6945C30.5537 27.6096 29.0821 27 27.5476 27H21.119C19.5847 27 18.113 27.6096 17.0279 28.6945C15.943 29.7796 15.3334 31.2513 15.3334 32.7856C15.3334 33.6141 16.0049 34.2856 16.8334 34.2856C17.6618 34.2856 18.3334 33.6141 18.3334 32.7856C18.3334 32.0469 18.6269 31.3383 19.1492 30.8158Z" fill="white"/>
<path fill-rule="evenodd" clip-rule="evenodd" d="M3.33337 24C3.33337 12.402 12.7354 3 24.3334 3C35.9314 3 45.3334 12.402 45.3334 24C45.3334 35.598 35.9314 45 24.3334 45C12.7354 45 3.33337 35.598 3.33337 24ZM22.8334 6.0616V7.5C22.8334 8.32842 23.5049 9 24.3334 9C25.1618 9 25.8334 8.32842 25.8334 7.5V6.0616C34.5781 6.78303 41.5504 13.7553 42.2717 22.5H40.8334C40.0049 22.5 39.3334 23.1716 39.3334 24C39.3334 24.8284 40.0049 25.5 40.8334 25.5H42.2717C41.5504 34.2447 34.5781 41.217 25.8334 41.9384V40.5C25.8334 39.6716 25.1618 39 24.3334 39C23.5049 39 22.8334 39.6716 22.8334 40.5V41.9384C14.0887 41.217 7.1164 34.2447 6.39498 25.5H7.83337C8.66179 25.5 9.33337 24.8284 9.33337 24C9.33337 23.1716 8.66179 22.5 7.83337 22.5H6.39498C7.1164 13.7553 14.0887 6.78303 22.8334 6.0616Z" fill="url(#paint0_linear_49_8776)"/>
<defs>
<linearGradient id="paint0_linear_49_8776" x1="33.4554" y1="12.4655" x2="13.8038" y2="37.794" gradientUnits="userSpaceOnUse">
<stop stop-color="#4D62E5"/>
<stop offset="0.0001" stop-color="#87DDEE"/>
<stop offset="0.490049" stop-color="#B6F09C"/>
</linearGradient>
</defs>
</svg>
