<svg width="42" height="33" viewBox="0 0 42 33" fill="none" xmlns="http://www.w3.org/2000/svg">
<g clip-path="url(#clip0_53_3988)">
<path d="M0 0H42V33H0V0Z" fill="#F0DB4F"/>
<path d="M38.5625 25.1299C38.2551 23.6242 37.0055 22.36 33.3046 21.1806C32.019 20.7163 30.5857 20.3838 30.1586 19.6184C30.0068 19.173 29.9869 18.922 30.0827 18.6522C30.3582 17.7771 31.6876 17.5041 32.7416 17.7551C33.4203 17.9339 34.0631 18.3449 34.4504 19.0004C36.2629 18.0782 36.2589 18.0845 37.5245 17.4508C37.0614 16.8862 36.8139 16.6258 36.5105 16.3843C35.4205 15.4276 33.9354 14.9351 31.5599 14.9727C31.1487 15.0135 30.7335 15.0574 30.3222 15.0982C29.1365 15.3335 28.0067 15.8228 27.3439 16.4784C25.3557 18.2508 25.9226 21.3531 28.342 22.6298C30.7255 24.0352 34.2268 24.3551 34.674 25.6695C35.1091 27.2787 33.1689 27.7994 31.2405 27.6143C29.8192 27.3822 29.0287 26.8144 28.1743 25.7824C26.6014 26.4976 26.6014 26.4976 24.9844 27.2285C25.3677 27.8873 25.7709 28.1853 26.4137 28.7562C29.4559 31.181 37.0694 31.0618 38.4348 27.3916C38.4907 27.2661 38.858 26.4254 38.5625 25.1299ZM22.8325 15.1672H18.904C18.904 17.8335 18.8881 20.481 18.8881 23.1474C18.8881 24.8444 18.9998 26.4003 18.6485 26.8771C18.0736 27.815 16.5844 27.699 15.9057 27.517C15.2151 27.2504 14.8637 26.8708 14.4565 26.3345C14.3447 26.1808 14.2609 26.0616 14.2329 26.0521C13.167 26.5635 12.1049 27.0779 11.039 27.5892C11.57 28.4456 12.3525 29.189 13.3546 29.6721C14.8517 30.3779 16.8639 30.5943 18.9679 30.2148C20.3373 29.9011 21.519 29.2518 22.1378 28.2636C23.0321 26.9681 22.8405 25.3997 22.8325 23.665C22.8525 20.8355 22.8325 18.006 22.8325 15.1672Z" fill="#323330"/>
</g>
<defs>
<clipPath id="clip0_53_3988">
<rect width="42" height="33" fill="white"/>
</clipPath>
</defs>
</svg>
