<svg width="32" height="32" viewBox="0 0 45 35" fill="none" xmlns="http://www.w3.org/2000/svg">
<g clip-path="url(#clip0_53_4078)">
<path d="M43.1043 27.5991H42.7891V27.5254H43.6379V27.5991H43.3246V27.9671H43.1043V27.5991ZM44.7973 27.6184H44.7924L44.4798 27.9673H44.3368L44.0264 27.6184H44.0227V27.9673H43.8149V27.5255H44.1207L44.4085 27.8383L44.6953 27.5255H45V27.9673H44.7972L44.7973 27.6184Z" fill="#E76F00"/>
<path d="M14.8779 18.5655C14.8779 18.5655 12.6842 19.099 16.4391 19.2795C20.9882 19.4965 23.3132 19.4653 28.3263 19.0686C28.3263 19.0686 29.6443 19.4142 31.4849 19.7135C20.2469 21.7274 6.05103 19.5968 14.8779 18.5655ZM13.5047 15.9375C13.5047 15.9375 11.0442 16.6991 14.8019 16.8616C19.6614 17.0712 23.499 17.0883 30.1396 16.5537C30.1396 16.5537 31.0582 16.943 32.5024 17.156C18.9148 18.8173 3.78083 17.287 13.5047 15.9375Z" fill="#5382A1"/>
<path d="M25.0814 11.479C27.8505 12.812 24.3541 14.0116 24.3541 14.0116C24.3541 14.0116 31.3848 12.4939 28.1559 10.5934C25.1401 8.82104 22.8273 7.9405 35.3476 4.9043C35.3478 4.90423 15.6949 6.95658 25.0814 11.479Z" fill="#E76F00"/>
<path d="M39.9447 20.5091C39.9447 20.5091 41.5681 21.0685 38.1567 21.5011C31.67 22.3228 11.1582 22.5709 5.46011 21.5339C3.4118 21.1613 7.25297 20.6442 8.46126 20.5357C9.72138 20.4215 10.4415 20.4428 10.4415 20.4428C8.16356 19.7718 -4.28215 21.7602 4.11969 22.3297C27.0327 23.8834 45.8881 21.6301 39.9447 20.5091ZM15.9329 13.2143C15.9329 13.2143 5.49926 14.2505 12.2381 14.6268C15.0834 14.7861 20.7555 14.7501 26.0388 14.565C30.3566 14.4127 34.6925 14.0889 34.6925 14.0889C34.6925 14.0889 33.17 14.3615 32.0684 14.676C21.4733 15.8412 1.00544 15.2991 6.89787 14.1073C11.8811 13.1001 15.9329 13.2143 15.9329 13.2143ZM34.6495 17.5888C45.4199 15.2486 40.4403 12.9997 36.9642 13.3027C36.1123 13.3768 35.7324 13.4411 35.7324 13.4411C35.7324 13.4411 36.0489 13.2339 36.6526 13.1443C43.529 12.1334 48.8173 16.1256 34.4329 17.7068C34.4329 17.7068 34.5998 17.6446 34.6495 17.5888Z" fill="#5382A1"/>
<path d="M28.1559 0.00195312C28.1559 0.00195312 34.1208 2.49683 22.4985 6.33341C13.1787 9.41089 20.3733 11.1656 22.4947 13.1705C17.0547 11.1181 13.0623 9.31151 15.7407 7.63002C19.6718 5.16173 30.5626 3.96502 28.1559 0.00195312Z" fill="#E76F00"/>
<path d="M16.9912 23.9313C27.3295 24.208 43.2051 23.7778 43.581 21.7324C43.581 21.7324 42.8584 22.5078 35.0369 23.1236C26.2131 23.8179 15.3299 23.7369 8.87501 23.2919C8.87532 23.2918 10.1966 23.7491 16.9912 23.9313Z" fill="#5382A1"/>
<path d="M15.2969 31.7465C14.3217 32.1002 13.2916 32.2987 12.3673 32.2987C11.0479 32.2987 10.335 31.9679 10.335 31.4373C10.335 30.8634 11.0989 30.4438 14.1629 30.4438H15.2968L15.2969 31.7465ZM17.988 33.016V29.0861C17.988 28.0822 16.6186 27.4198 13.317 27.4198C11.3895 27.4198 9.70111 27.6188 8.32881 27.8726L8.72492 28.5682C9.8054 28.4024 11.204 28.2481 12.5768 28.2481C14.4787 28.2481 15.2969 28.5682 15.2969 29.2302V29.727H14.3477C9.72664 29.727 7.64212 30.477 7.64212 31.6028C7.64212 32.5744 9.01581 33.1267 11.6023 33.1267C13.2649 33.1267 14.5059 32.8396 15.6661 32.4196L15.8767 33.0162L17.988 33.016ZM26.969 33.016H23.6127L19.5734 27.5193H22.5046L25.0109 30.8965L25.5681 31.9121C26.8361 30.4436 27.733 28.9538 28.1816 27.5193H31.0328C30.2688 29.3293 28.8941 31.316 26.969 33.016ZM39.8447 31.7465C38.8676 32.1002 37.8358 32.2987 36.9113 32.2987C35.5943 32.2987 34.8796 31.9679 34.8796 31.4373C34.8796 30.8634 35.645 30.4438 38.7088 30.4438H39.8447V31.7465ZM42.5355 33.016V29.0861C42.5355 28.0822 41.1628 27.4198 37.8648 27.4198C35.9361 27.4198 34.247 27.6188 32.8754 27.8726L33.271 28.5682C34.3518 28.4024 35.753 28.2481 37.1247 28.2481C39.0253 28.2481 39.8447 28.5682 39.8447 29.2302V29.727H38.8937C34.2715 29.727 32.1877 30.477 32.1877 31.6028C32.1877 32.5744 33.5603 33.1267 36.1463 33.1267C37.81 33.1267 39.0506 32.8396 40.2126 32.4196L40.424 33.0162L42.5355 33.016ZM4.69142 33.9494C3.92426 34.4178 2.68519 34.7883 1.32867 34.9979L0 34.3441C1.03251 34.1226 1.91803 33.7648 2.32946 33.4316C2.68534 33.1353 2.83264 32.7533 2.83264 31.8398V25.5645H5.69175V31.7538C5.69159 32.975 5.4581 33.4683 4.69142 33.9494Z" fill="#E76F00"/>
</g>
<defs>
<clipPath id="clip0_53_4078">
<rect width="45" height="35" fill="white"/>
</clipPath>
</defs>
</svg>
