<svg width="29" height="32" viewBox="0 0 29 32" fill="none" xmlns="http://www.w3.org/2000/svg">
<g clip-path="url(#clip0_53_4386)">
<path d="M29 0H14.5604L0.772125 16H14.4746L14.5387 15.928L29 0Z" fill="url(#paint0_linear_53_4386)"/>
<path d="M14.5387 15.9277L14.4746 15.9997H14.6039L14.5387 15.9277Z" fill="url(#paint1_linear_53_4386)"/>
<path d="M14.5604 0H0V16.896V16H0.772125L14.5604 0Z" fill="url(#paint2_linear_53_4386)"/>
<path d="M14.4746 16H0.772125L0 16.896V32L14.4746 16Z" fill="url(#paint3_linear_53_4386)"/>
<path d="M14.6039 16H14.4746L0 32H29L14.6039 16Z" fill="url(#paint4_linear_53_4386)"/>
<path d="M0.772125 16H0V16.896L0.772125 16Z" fill="url(#paint5_linear_53_4386)"/>
</g>
<defs>
<linearGradient id="paint0_linear_53_4386" x1="-5.17591" y1="29.2436" x2="24.4581" y2="2.3878" gradientUnits="userSpaceOnUse">
<stop stop-color="#C757BC"/>
<stop offset="0.108" stop-color="#C757BC"/>
<stop offset="0.173" stop-color="#CD5CA9"/>
<stop offset="0.492" stop-color="#E8744F"/>
<stop offset="0.716" stop-color="#F88316"/>
<stop offset="0.823" stop-color="#FF8900"/>
<stop offset="1" stop-color="#FF8900"/>
</linearGradient>
<linearGradient id="paint1_linear_53_4386" x1="9.36813" y1="37.7639" x2="23.8123" y2="24.6739" gradientUnits="userSpaceOnUse">
<stop stop-color="#00AFFF"/>
<stop offset="0.296" stop-color="#00AFFF"/>
<stop offset="0.694" stop-color="#5282FF"/>
<stop offset="1" stop-color="#945DFF"/>
</linearGradient>
<linearGradient id="paint2_linear_53_4386" x1="-0.305851" y1="8.84359" x2="9.82691" y2="-0.339465" gradientUnits="userSpaceOnUse">
<stop stop-color="#00AFFF"/>
<stop offset="0.296" stop-color="#00AFFF"/>
<stop offset="0.694" stop-color="#5282FF"/>
<stop offset="1" stop-color="#945DFF"/>
</linearGradient>
<linearGradient id="paint3_linear_53_4386" x1="-5.014" y1="29.4223" x2="24.62" y2="2.56647" gradientUnits="userSpaceOnUse">
<stop stop-color="#AD4CA4"/>
<stop offset="0.108" stop-color="#AD4CA4"/>
<stop offset="0.173" stop-color="#B25093"/>
<stop offset="0.492" stop-color="#CA6545"/>
<stop offset="0.716" stop-color="#D87213"/>
<stop offset="0.823" stop-color="#DE7700"/>
<stop offset="1" stop-color="#DE7700"/>
</linearGradient>
<linearGradient id="paint4_linear_53_4386" x1="9.36813" y1="37.7642" x2="23.8123" y2="24.6742" gradientUnits="userSpaceOnUse">
<stop stop-color="#0098DE"/>
<stop offset="0.296" stop-color="#0098DE"/>
<stop offset="0.694" stop-color="#4771DE"/>
<stop offset="1" stop-color="#8151DE"/>
</linearGradient>
<linearGradient id="paint5_linear_53_4386" x1="3.32058" y1="12.8451" x2="13.4533" y2="3.66201" gradientUnits="userSpaceOnUse">
<stop stop-color="#0098DE"/>
<stop offset="0.296" stop-color="#0098DE"/>
<stop offset="0.694" stop-color="#4771DE"/>
<stop offset="1" stop-color="#8151DE"/>
</linearGradient>
<clipPath id="clip0_53_4386">
<rect width="29" height="32" fill="white"/>
</clipPath>
</defs>
</svg>
