<svg width="49" height="48" viewBox="0 0 49 48" fill="none" xmlns="http://www.w3.org/2000/svg">
<path fill-rule="evenodd" clip-rule="evenodd" d="M10.8334 6C8.84425 6 6.9366 6.79018 5.53007 8.1967C4.12355 9.60322 3.33337 11.5109 3.33337 13.5V34.5C3.33337 36.4891 4.12355 38.3968 5.53007 39.8033C6.9366 41.2098 8.84425 42 10.8334 42H24.3334C24.7312 42 25.1127 41.842 25.394 41.5607C25.6753 41.2794 25.8334 40.8978 25.8334 40.5C25.8334 40.1022 25.6753 39.7206 25.394 39.4393C25.1127 39.158 24.7312 39 24.3334 39H10.8334C9.6399 39 8.49531 38.5259 7.65139 37.682C6.80748 36.8381 6.33337 35.6935 6.33337 34.5V18H42.3334V25.5C42.3334 25.8978 42.4914 26.2794 42.7727 26.5607C43.054 26.842 43.4356 27 43.8334 27C44.2312 27 44.6127 26.842 44.894 26.5607C45.1753 26.2794 45.3334 25.8978 45.3334 25.5V13.5C45.3334 11.5109 44.5432 9.60322 43.1367 8.1967C41.7301 6.79018 39.8225 6 37.8334 6H10.8334ZM10.8334 13.5C11.2312 13.5 11.6127 13.342 11.894 13.0607C12.1753 12.7794 12.3334 12.3978 12.3334 12C12.3334 11.6022 12.1753 11.2206 11.894 10.9393C11.6127 10.658 11.2312 10.5 10.8334 10.5C10.4355 10.5 10.054 10.658 9.77271 10.9393C9.49141 11.2206 9.33337 11.6022 9.33337 12C9.33337 12.3978 9.49141 12.7794 9.77271 13.0607C10.054 13.342 10.4355 13.5 10.8334 13.5ZM15.3334 13.5C15.7312 13.5 16.1127 13.342 16.394 13.0607C16.6753 12.7794 16.8334 12.3978 16.8334 12C16.8334 11.6022 16.6753 11.2206 16.394 10.9393C16.1127 10.658 15.7312 10.5 15.3334 10.5C14.9355 10.5 14.554 10.658 14.2727 10.9393C13.9914 11.2206 13.8334 11.6022 13.8334 12C13.8334 12.3978 13.9914 12.7794 14.2727 13.0607C14.554 13.342 14.9355 13.5 15.3334 13.5ZM21.3334 12C21.3334 12.3978 21.1753 12.7794 20.894 13.0607C20.6127 13.342 20.2312 13.5 19.8334 13.5C19.4355 13.5 19.054 13.342 18.7727 13.0607C18.4914 12.7794 18.3334 12.3978 18.3334 12C18.3334 11.6022 18.4914 11.2206 18.7727 10.9393C19.054 10.658 19.4355 10.5 19.8334 10.5C20.2312 10.5 20.6127 10.658 20.894 10.9393C21.1753 11.2206 21.3334 11.6022 21.3334 12Z" fill="url(#paint0_linear_49_8756)"/>
<path fill-rule="evenodd" clip-rule="evenodd" d="M37.8334 30C37.4356 30 37.054 30.158 36.7727 30.4393C36.4914 30.7206 36.3334 31.1022 36.3334 31.5C36.3334 31.8978 36.4914 32.2794 36.7727 32.5607C37.054 32.842 37.4356 33 37.8334 33H40.7134L37.3159 37.245L33.8074 36.0765C33.5431 35.9886 33.2596 35.976 32.9886 36.0401C32.7176 36.1042 32.4697 36.2425 32.2729 36.4395L29.2729 39.4395C28.9996 39.7224 28.8484 40.1013 28.8519 40.4946C28.8553 40.8879 29.013 41.2641 29.2911 41.5422C29.5693 41.8203 29.9455 41.9781 30.3388 41.9815C30.7321 41.9849 31.111 41.8337 31.3939 41.5605L33.7384 39.216L37.3594 40.4235C37.6504 40.5205 37.9642 40.5259 38.2585 40.439C38.5527 40.3521 38.8132 40.1771 39.0049 39.9375L42.3334 35.73V37.5C42.3334 37.8978 42.4914 38.2794 42.7727 38.5607C43.054 38.842 43.4356 39 43.8334 39C44.2312 39 44.6127 38.842 44.894 38.5607C45.1753 38.2794 45.3334 37.8978 45.3334 37.5V31.5C45.3334 31.1022 45.1753 30.7206 44.894 30.4393C44.6127 30.158 44.2312 30 43.8334 30H37.8334Z" fill="white"/>
<defs>
<linearGradient id="paint0_linear_49_8756" x1="33.4554" y1="14.1133" x2="17.4187" y2="38.2275" gradientUnits="userSpaceOnUse">
<stop stop-color="#4D62E5"/>
<stop offset="0.0001" stop-color="#87DDEE"/>
<stop offset="0.490049" stop-color="#B6F09C"/>
</linearGradient>
</defs>
</svg>
