<svg width="49" height="48" viewBox="0 0 49 48" fill="none" xmlns="http://www.w3.org/2000/svg">
<g clip-path="url(#clip0_49_8746)">
<mask id="mask0_49_8746" style="mask-type:luminance" maskUnits="userSpaceOnUse" x="0" y="0" width="49" height="48">
<path d="M48.6667 0H0.666687V48H48.6667V0Z" fill="white"/>
</mask>
<g mask="url(#mask0_49_8746)">
<path fill-rule="evenodd" clip-rule="evenodd" d="M3.66669 21C3.66669 16.8579 3.66669 20.25 3.66669 18H45.6667C45.6667 21.75 45.6667 16.8579 45.6667 21V22.5C45.6667 24.9854 43.652 27 41.1667 27H33.152C31.9585 27 30.8138 27.4742 29.9699 28.3181L25.7852 32.5028C24.4156 33.8724 24.0761 35.9648 24.9424 37.6973L26.0083 39.8292C26.2408 40.2942 26.216 40.8463 25.9426 41.2885C25.6693 41.7307 25.1866 42 24.6667 42H11.1667C7.02456 42 3.66669 38.6421 3.66669 34.5V21Z" fill="url(#paint0_linear_49_8746)"/>
<path fill-rule="evenodd" clip-rule="evenodd" d="M34.4383 39.4092C35.0065 40.0119 35.0065 40.9893 34.4383 41.592C33.8699 42.1947 32.9485 42.1947 32.3803 41.592L28.1375 37.092C27.5693 36.4893 27.5693 35.5119 28.1375 34.9092L32.3803 30.4092C32.9485 29.8063 33.8699 29.8063 34.4381 30.4092C35.0065 31.0119 35.0065 31.9893 34.4383 32.592L31.2245 36.0006L34.4383 39.4092ZM38.3803 32.592C37.8119 31.9893 37.8119 31.012 38.3803 30.4092C38.9485 29.8065 39.8699 29.8065 40.4383 30.4092L44.6809 34.9092C45.2491 35.512 45.2491 36.4893 44.6809 37.092L40.4383 41.592C39.8699 42.1948 38.9485 42.1948 38.3803 41.592C37.8119 40.9893 37.8119 40.0119 38.3803 39.4092L41.5939 36.0006L38.3803 32.592Z" fill="white"/>
<path fill-rule="evenodd" clip-rule="evenodd" d="M11.1667 6C7.02456 6 3.66669 9.35787 3.66669 13.5V15H45.6667V13.5C45.6667 9.35787 42.3088 6 38.1667 6H11.1667ZM9.66669 12C10.4951 12 11.1667 11.3284 11.1667 10.5C11.1667 9.67158 10.4951 9 9.66669 9C8.83827 9 8.16669 9.67158 8.16669 10.5C8.16669 11.3284 8.83827 12 9.66669 12ZM14.1667 12C14.9951 12 15.6667 11.3284 15.6667 10.5C15.6667 9.67158 14.9951 9 14.1667 9C13.3383 9 12.6667 9.67158 12.6667 10.5C12.6667 11.3284 13.3383 12 14.1667 12ZM20.1667 10.5C20.1667 11.3284 19.4951 12 18.6667 12C17.8382 12 17.1667 11.3284 17.1667 10.5C17.1667 9.67158 17.8382 9 18.6667 9C19.4951 9 20.1667 9.67158 20.1667 10.5Z" fill="url(#paint1_linear_49_8746)"/>
</g>
</g>
<defs>
<linearGradient id="paint0_linear_49_8746" x1="24.6667" y1="18" x2="24.6667" y2="42" gradientUnits="userSpaceOnUse">
<stop stop-color="#4D62E5"/>
<stop offset="0.5" stop-color="#87DDEE"/>
<stop offset="1" stop-color="#B6F09C"/>
</linearGradient>
<linearGradient id="paint1_linear_49_8746" x1="24.6667" y1="6" x2="24.6667" y2="15" gradientUnits="userSpaceOnUse">
<stop stop-color="#4D62E5"/>
<stop offset="0.5" stop-color="#87DDEE"/>
<stop offset="1" stop-color="#B6F09C"/>
</linearGradient>
<clipPath id="clip0_49_8746">
<rect width="48" height="48" fill="white" transform="translate(0.666687)"/>
</clipPath>
</defs>
</svg>
