<svg width="21" height="21" viewBox="0 0 21 21" fill="none" xmlns="http://www.w3.org/2000/svg">
<path d="M12.5157 18.8677L10.4489 17.4623C7.8093 15.6674 5.53222 13.3903 3.73728 10.7507L2.33185 8.68387C1.07795 6.83989 1.47202 4.33904 3.23221 2.97001L4.13512 2.26775C5.58921 1.13679 7.69774 1.47895 8.71958 3.0117L9.15879 3.67053C9.56561 4.28075 9.61426 5.06218 9.28628 5.71815C8.68289 6.92492 8.71389 8.3517 9.36913 9.53112L9.53391 9.82773C9.96293 10.6 10.5996 11.2367 11.3719 11.6657L11.6685 11.8305C12.8479 12.4857 14.2747 12.5167 15.4814 11.9133C16.1374 11.5853 16.9188 11.634 17.5291 12.0408L18.1879 12.48C19.7206 13.5018 20.0628 15.6104 18.9318 17.0645L18.2296 17.9674C16.8605 19.7276 14.3597 20.1216 12.5157 18.8677Z" stroke="#686B6E" strokeWidth="1.5" strokeLinecap="round"/>
</svg>
