<svg width="50" height="28" viewBox="0 0 50 28" fill="none" xmlns="http://www.w3.org/2000/svg">
<mask id="mask0_53_4453" style="mask-type:luminance" maskUnits="userSpaceOnUse" x="1" y="1" width="48" height="26">
<path d="M1.82759 13.9999C1.82759 20.9034 12.2423 26.5 25.0889 26.5C37.9355 26.5 48.3502 20.9034 48.3502 13.9999C48.3502 7.09646 37.9355 1.49988 25.0889 1.49988C12.2423 1.49988 1.82759 7.09655 1.82759 13.9999Z" fill="white"/>
</mask>
<g mask="url(#mask0_53_4453)">
<path d="M1.82759 13.9999C1.82759 20.9034 12.2423 26.5 25.0889 26.5C37.9355 26.5 48.3502 20.9034 48.3502 13.9999C48.3502 7.09646 37.9355 1.49988 25.0889 1.49988C12.2423 1.49988 1.82759 7.09655 1.82759 13.9999Z" fill="url(#paint0_radial_53_4453)"/>
</g>
<mask id="mask1_53_4453" style="mask-type:luminance" maskUnits="userSpaceOnUse" x="0" y="0" width="50" height="28">
<path d="M0.858368 0.0771618H49.3194V27.9238H0.858368V0.0771618Z" fill="white"/>
</mask>
<g mask="url(#mask1_53_4453)">
<path d="M25.0889 25.5723C37.4338 25.5723 47.4415 20.3914 47.4415 14.0004C47.4415 7.60945 37.4338 2.42859 25.0889 2.42859C12.7439 2.42859 2.73623 7.60945 2.73623 14.0004C2.73623 20.3914 12.7439 25.5723 25.0889 25.5723Z" fill="#777BB3"/>
</g>
<mask id="mask2_53_4453" style="mask-type:luminance" maskUnits="userSpaceOnUse" x="0" y="0" width="50" height="28">
<path d="M0.858368 0.0771618H49.3194V27.9238H0.858368V0.0771618Z" fill="white"/>
</mask>
<g mask="url(#mask2_53_4453)">
<path d="M14.4657 15.4348C15.4807 15.4348 16.2385 15.2435 16.7179 14.8667C17.1923 14.4937 17.5199 13.8472 17.6916 12.9455C17.8517 12.1027 17.7907 11.5142 17.5104 11.1967C17.2237 10.8723 16.604 10.7078 15.6684 10.7078H14.0463L13.1469 15.4349H14.4656L14.4657 15.4348ZM9.15984 21.2576C9.08454 21.2576 9.01303 21.2233 8.96516 21.1638C8.94149 21.1344 8.92446 21.1001 8.91529 21.0633C8.90613 21.0264 8.90506 20.988 8.91215 20.9506L11.2955 8.42394C11.3067 8.3652 11.3375 8.31226 11.3827 8.27421C11.4279 8.23615 11.4847 8.21534 11.5433 8.21534H16.68C18.2943 8.21534 19.4959 8.66227 20.2512 9.5464C21.0105 10.4342 21.245 11.6755 20.9481 13.2352C20.8273 13.8707 20.6194 14.4608 20.3305 14.9894C20.0411 15.5184 19.6588 16.0079 19.1939 16.4445C18.6373 16.9766 18.0073 17.3625 17.3231 17.5896C16.6498 17.8137 15.7851 17.9274 14.753 17.9274H12.673L12.079 21.0491C12.0679 21.1079 12.037 21.1608 11.9919 21.1989C11.9467 21.237 11.8899 21.2578 11.8313 21.2578H9.15984V21.2576Z" fill="black"/>
<path d="M14.2545 10.9656H15.6686C16.7977 10.9656 17.19 11.2187 17.3233 11.3696C17.5444 11.62 17.5861 12.1481 17.444 12.8966C17.2843 13.7345 16.9883 14.3287 16.5641 14.6623C16.1298 15.0039 15.4238 15.177 14.4658 15.177H13.4532L14.2545 10.9656ZM16.6801 7.95748H11.5434C11.4262 7.95749 11.3127 7.99913 11.2223 8.07526C11.1319 8.15139 11.0702 8.25727 11.0479 8.37475L8.66455 20.9016C8.65035 20.9763 8.6525 21.0532 8.67083 21.1269C8.68916 21.2006 8.72322 21.2693 8.77057 21.328C8.81792 21.3866 8.87739 21.4339 8.94472 21.4663C9.01205 21.4988 9.08557 21.5156 9.16001 21.5156H11.8313C11.9484 21.5156 12.0619 21.474 12.1524 21.3979C12.2428 21.3217 12.3044 21.2158 12.3268 21.0984L12.8811 18.1852H14.7531C15.8116 18.1852 16.7028 18.0673 17.4016 17.8348C18.1201 17.5963 18.7814 17.1919 19.3664 16.6329C19.8504 16.1781 20.2498 15.6676 20.551 15.1154C20.8522 14.5632 21.0701 13.947 21.1962 13.2845C21.5087 11.6426 21.2548 10.3278 20.4415 9.37688C19.6362 8.43508 18.3706 7.95756 16.6802 7.95756M12.8409 15.6927H14.4658C15.5427 15.6927 16.345 15.4856 16.872 15.071C17.3991 14.6564 17.7548 13.9645 17.9395 12.9948C18.1162 12.0638 18.0358 11.4069 17.6981 11.024C17.3604 10.6412 16.6834 10.4499 15.6688 10.4499H13.8385L12.841 15.6927M16.6803 8.47316C18.2256 8.47316 19.3529 8.88742 20.0615 9.71594C20.77 10.5445 20.9833 11.7011 20.7006 13.186C20.5843 13.7977 20.3875 14.357 20.1104 14.8637C19.8334 15.3705 19.4709 15.8343 19.0233 16.2547C18.4899 16.7646 17.8973 17.1279 17.2453 17.3445C16.5932 17.5615 15.7628 17.6695 14.7532 17.6695H12.4651L11.8316 20.9999H9.16035L11.5434 8.47316H16.6801" fill="white"/>
<path d="M27.073 17.9276C26.9976 17.9276 26.9262 17.8933 26.8783 17.8338C26.8305 17.7743 26.8108 17.6963 26.8253 17.6206L27.8795 12.078C27.9798 11.5508 27.9551 11.1725 27.8099 11.0127C27.7211 10.9149 27.4542 10.751 26.6651 10.751H24.7551L23.4296 17.7189C23.4184 17.7776 23.3876 17.8306 23.3424 17.8687C23.2972 17.9067 23.2404 17.9276 23.1818 17.9276H20.5316C20.4944 17.9276 20.4576 17.9192 20.4239 17.9029C20.3903 17.8867 20.3605 17.8631 20.3369 17.8337C20.3132 17.8044 20.2961 17.7701 20.287 17.7332C20.2778 17.6964 20.2767 17.6579 20.2838 17.6206L22.6672 5.09386C22.6784 5.03512 22.7092 4.98219 22.7544 4.94413C22.7996 4.90607 22.8564 4.88526 22.915 4.88527H25.5652C25.6024 4.88527 25.6392 4.89368 25.6728 4.9099C25.7065 4.92612 25.7362 4.94974 25.7599 4.97908C25.7836 5.00842 25.8006 5.04276 25.8098 5.07961C25.819 5.11647 25.82 5.15494 25.8129 5.19227L25.2378 8.21569H27.2925C28.8578 8.21569 29.9192 8.4976 30.5375 9.07757C31.1686 9.66922 31.3643 10.6151 31.122 11.8897L30.0131 17.7191C30.002 17.7778 29.9711 17.8308 29.9259 17.8688C29.8807 17.9069 29.824 17.9277 29.7654 17.9277H27.0731L27.073 17.9276Z" fill="black"/>
<path d="M25.5651 4.62757H22.9149C22.7977 4.62757 22.6842 4.6692 22.5938 4.74533C22.5033 4.82146 22.4417 4.92735 22.4193 5.04484L20.036 17.5715C20.0218 17.6462 20.0239 17.7231 20.0423 17.7969C20.0606 17.8706 20.0947 17.9392 20.142 17.9979C20.1894 18.0566 20.2489 18.1038 20.3162 18.1363C20.3835 18.1687 20.4571 18.1855 20.5315 18.1855H23.1817C23.2989 18.1856 23.4124 18.1439 23.5028 18.0678C23.5933 17.9917 23.6549 17.8858 23.6773 17.7683L24.9631 11.009H26.6651C27.4529 11.009 27.6182 11.1809 27.6248 11.1883C27.6726 11.2407 27.7355 11.484 27.6317 12.0289L26.5775 17.5715C26.5633 17.6462 26.5655 17.7231 26.5838 17.7969C26.6022 17.8706 26.6362 17.9392 26.6836 17.9979C26.731 18.0566 26.7904 18.1038 26.8578 18.1363C26.9251 18.1687 26.9986 18.1855 27.0731 18.1855H29.7654C29.8825 18.1856 29.9961 18.1439 30.0865 18.0678C30.1769 17.9917 30.2386 17.8858 30.2609 17.7683L31.3698 11.939C31.63 10.5707 31.4074 9.54414 30.7085 8.88785C30.0415 8.26216 28.9242 7.95791 27.2927 7.95791H25.544L26.0609 5.24157C26.0751 5.16691 26.073 5.08996 26.0546 5.01623C26.0363 4.94251 26.0022 4.87384 25.9549 4.81515C25.9075 4.75646 25.848 4.7092 25.7807 4.67675C25.7133 4.64431 25.6398 4.62748 25.5653 4.62749M25.5653 5.14316L24.9318 8.47359H27.2928C28.7783 8.47359 29.803 8.73848 30.367 9.26757C30.931 9.79665 31.0998 10.6547 30.8745 11.8406L29.7656 17.6699H27.0733L28.1275 12.1273C28.2475 11.4968 28.2034 11.0668 27.9951 10.8375C27.7868 10.6082 27.3434 10.4933 26.6654 10.4933H24.5471L23.1819 17.6699H20.5317L22.915 5.14316H25.5652" fill="white"/>
<path d="M35.3153 15.4348C36.3304 15.4348 37.0882 15.2435 37.5676 14.8667C38.0419 14.4937 38.3696 13.8473 38.5414 12.9455C38.7015 12.1027 38.6405 11.5142 38.3601 11.1967C38.0734 10.8723 37.4537 10.7078 36.5181 10.7078H34.896L33.9966 15.4349H35.3153L35.3153 15.4348ZM30.0097 21.2576C29.9344 21.2576 29.8629 21.2233 29.815 21.1638C29.7913 21.1345 29.7743 21.1001 29.7651 21.0633C29.7559 21.0264 29.7548 20.988 29.7619 20.9506L32.1453 8.42394C32.1565 8.36518 32.1873 8.31224 32.2325 8.27418C32.2778 8.23612 32.3345 8.21532 32.3931 8.21534H37.5297C39.1443 8.21534 40.3457 8.66227 41.101 9.5464C41.8604 10.4342 42.0947 11.6753 41.7979 13.2352C41.6769 13.8707 41.4692 14.4608 41.1802 14.9894C40.8908 15.5184 40.5085 16.0079 40.0436 16.4445C39.4869 16.9766 38.8569 17.3625 38.1728 17.5896C37.4994 17.8137 36.6348 17.9274 35.6027 17.9274H33.5224L32.9287 21.0491C32.9175 21.1079 32.8867 21.1609 32.8415 21.1989C32.7962 21.237 32.7395 21.2578 32.6809 21.2578H30.0096L30.0097 21.2576Z" fill="black"/>
<path d="M35.1042 10.9656H36.5183C37.6474 10.9656 38.0397 11.2187 38.1729 11.3696C38.3942 11.62 38.4359 12.1481 38.2937 12.8965C38.134 13.7345 37.8379 14.3287 37.4138 14.6623C36.9795 15.0039 36.2734 15.177 35.3155 15.177H34.3031L35.1042 10.9656ZM37.5297 7.95748H32.393C32.2759 7.95749 32.1624 7.99913 32.072 8.07526C31.9816 8.15139 31.9199 8.25727 31.8976 8.37475L29.5143 20.9016C29.5001 20.9763 29.5023 21.0532 29.5206 21.1269C29.5389 21.2006 29.573 21.2693 29.6203 21.328C29.6677 21.3866 29.7272 21.4339 29.7945 21.4663C29.8618 21.4988 29.9353 21.5156 30.0098 21.5156H32.681C32.7982 21.5156 32.9117 21.474 33.0021 21.3979C33.0925 21.3217 33.1542 21.2158 33.1766 21.0984L33.7308 18.1852H35.6027C36.6613 18.1852 37.5525 18.0673 38.2513 17.8348C38.9698 17.5963 39.6311 17.1919 40.2163 16.6327C40.7002 16.1781 41.0987 15.6676 41.4007 15.1154C41.7028 14.5632 41.9198 13.947 42.0459 13.2845C42.3584 11.6425 42.1045 10.3277 41.2912 9.3768C40.4859 8.43508 39.2204 7.95756 37.5299 7.95756M33.6907 15.6927H35.3155C36.3924 15.6927 37.1947 15.4856 37.7217 15.071C38.2487 14.6564 38.6045 13.9645 38.7892 12.9948C38.9661 12.0638 38.8855 11.4069 38.5478 11.024C38.21 10.6412 37.5331 10.4499 36.5184 10.4499H34.6882L33.6908 15.6927M37.53 8.47316C39.0753 8.47316 40.2026 8.88742 40.9112 9.71594C41.6197 10.5445 41.833 11.7011 41.5503 13.186C41.434 13.7977 41.2372 14.357 40.9601 14.8637C40.6831 15.3705 40.3205 15.8343 39.8729 16.2547C39.3395 16.7646 38.747 17.1279 38.0949 17.3445C37.4429 17.5615 36.6125 17.6695 35.6029 17.6695H33.3148L32.6813 20.9999H30.01L32.3934 8.47324H37.5301" fill="white"/>
</g>
<defs>
<radialGradient id="paint0_radial_53_4453" cx="0" cy="0" r="1" gradientUnits="userSpaceOnUse" gradientTransform="translate(15.7938 5.89457) scale(30.5454 31.2036)">
<stop stop-color="#AEB2D5"/>
<stop offset="0.3" stop-color="#AEB2D5"/>
<stop offset="0.75" stop-color="#484C89"/>
<stop offset="1" stop-color="#484C89"/>
</radialGradient>
</defs>
</svg>
