<svg width="49" height="48" viewBox="0 0 49 48" fill="none" xmlns="http://www.w3.org/2000/svg">
<path fill-rule="evenodd" clip-rule="evenodd" d="M11.1667 6C9.17756 6 7.26991 6.79018 5.86339 8.1967C4.45686 9.60322 3.66669 11.5109 3.66669 13.5V34.5C3.66669 36.4891 4.45686 38.3968 5.86339 39.8033C7.26991 41.2098 9.17756 42 11.1667 42H24.6667C25.0645 42 25.446 41.842 25.7273 41.5607C26.0087 41.2794 26.1667 40.8978 26.1667 40.5C26.1667 40.1022 26.0087 39.7206 25.7273 39.4393C25.446 39.158 25.0645 39 24.6667 39H11.1667C9.97321 39 8.82862 38.5259 7.98471 37.682C7.14079 36.8381 6.66669 35.6935 6.66669 34.5V18H42.6667V25.5C42.6667 25.8978 42.8247 26.2794 43.106 26.5607C43.3873 26.842 43.7689 27 44.1667 27C44.5645 27 44.946 26.842 45.2273 26.5607C45.5087 26.2794 45.6667 25.8978 45.6667 25.5V13.5C45.6667 11.5109 44.8765 9.60322 43.47 8.1967C42.0635 6.79018 40.1558 6 38.1667 6H11.1667ZM11.1667 13.5C11.5645 13.5 11.946 13.342 12.2273 13.0607C12.5087 12.7794 12.6667 12.3978 12.6667 12C12.6667 11.6022 12.5087 11.2206 12.2273 10.9393C11.946 10.658 11.5645 10.5 11.1667 10.5C10.7689 10.5 10.3873 10.658 10.106 10.9393C9.82472 11.2206 9.66669 11.6022 9.66669 12C9.66669 12.3978 9.82472 12.7794 10.106 13.0607C10.3873 13.342 10.7689 13.5 11.1667 13.5ZM15.6667 13.5C16.0645 13.5 16.446 13.342 16.7273 13.0607C17.0087 12.7794 17.1667 12.3978 17.1667 12C17.1667 11.6022 17.0087 11.2206 16.7273 10.9393C16.446 10.658 16.0645 10.5 15.6667 10.5C15.2689 10.5 14.8873 10.658 14.606 10.9393C14.3247 11.2206 14.1667 11.6022 14.1667 12C14.1667 12.3978 14.3247 12.7794 14.606 13.0607C14.8873 13.342 15.2689 13.5 15.6667 13.5ZM21.6667 12C21.6667 12.3978 21.5087 12.7794 21.2273 13.0607C20.946 13.342 20.5645 13.5 20.1667 13.5C19.7689 13.5 19.3873 13.342 19.106 13.0607C18.8247 12.7794 18.6667 12.3978 18.6667 12C18.6667 11.6022 18.8247 11.2206 19.106 10.9393C19.3873 10.658 19.7689 10.5 20.1667 10.5C20.5645 10.5 20.946 10.658 21.2273 10.9393C21.5087 11.2206 21.6667 11.6022 21.6667 12Z" fill="url(#paint0_linear_49_8770)"/>
<path fill-rule="evenodd" clip-rule="evenodd" d="M37.0747 30.8445C33.6802 29.874 30.5407 33.0135 31.5112 36.408L32.8702 41.163C33.8122 44.4615 37.9522 45.534 40.3777 43.1085L40.5772 42.9105L42.4087 44.742C42.6899 45.0235 43.0715 45.1817 43.4694 45.1818C43.8673 45.1819 44.249 45.024 44.5304 44.7428C44.8119 44.4615 44.9701 44.0799 44.9702 43.682C44.9704 43.2841 44.8124 42.9025 44.5312 42.621L42.6982 40.788L43.7752 39.7125C46.2007 37.2855 45.1282 33.1455 41.8282 32.2035L37.0732 30.8445H37.0747ZM36.6667 22.5C36.6667 22.1022 36.5087 21.7206 36.2273 21.4393C35.946 21.158 35.5645 21 35.1667 21C34.7689 21 34.3873 21.158 34.106 21.4393C33.8247 21.7206 33.6667 22.1022 33.6667 22.5V25.5C33.6667 25.8978 33.8247 26.2794 34.106 26.5607C34.3873 26.842 34.7689 27 35.1667 27C35.5645 27 35.946 26.842 36.2273 26.5607C36.5087 26.2794 36.6667 25.8978 36.6667 25.5V22.5ZM24.2272 22.9395C24.5085 22.6583 24.8899 22.5003 25.2877 22.5003C25.6854 22.5003 26.0669 22.6583 26.3482 22.9395L28.4707 25.0605C28.7519 25.342 28.9099 25.7236 28.9097 26.1215C28.9096 26.5194 28.7514 26.901 28.4699 27.1823C28.1885 27.4635 27.8068 27.6214 27.4089 27.6213C27.011 27.6212 26.6294 27.463 26.3482 27.1815L24.2272 25.0605C23.946 24.7792 23.788 24.3977 23.788 24C23.788 23.6023 23.946 23.2208 24.2272 22.9395ZM20.1667 33C20.1667 32.6022 20.3247 32.2206 20.606 31.9393C20.8873 31.658 21.2689 31.5 21.6667 31.5H24.6667C25.0645 31.5 25.446 31.658 25.7273 31.9393C26.0087 32.2206 26.1667 32.6022 26.1667 33C26.1667 33.3978 26.0087 33.7794 25.7273 34.0607C25.446 34.342 25.0645 34.5 24.6667 34.5H21.6667C21.2689 34.5 20.8873 34.342 20.606 34.0607C20.3247 33.7794 20.1667 33.3978 20.1667 33Z" fill="white"/>
<defs>
<linearGradient id="paint0_linear_49_8770" x1="33.7887" y1="14.1133" x2="17.752" y2="38.2275" gradientUnits="userSpaceOnUse">
<stop stop-color="#4D62E5"/>
<stop offset="0.0001" stop-color="#87DDEE"/>
<stop offset="0.490049" stop-color="#B6F09C" stop-opacity="0.941176"/>
</linearGradient>
</defs>
</svg>
