<svg width="19" height="21" viewBox="0 0 19 21" fill="none" xmlns="http://www.w3.org/2000/svg">
<path d="M7 13C3.68629 13 1 15.6863 1 19M14 19V20M14 19C13.1716 19 12.4216 18.6642 11.8787 18.1213M14 19C14.8284 19 15.5784 18.6642 16.1213 18.1213M17 16H18M17 16C17 15.1716 16.6642 14.4216 16.1213 13.8787M17 16C17 16.8284 16.6642 17.5784 16.1213 18.1213M14 13V12M14 13C14.8284 13 15.5784 13.3358 16.1213 13.8787M14 13C13.1716 13 12.4216 13.3358 11.8787 13.8787M11 16H10M11 16C11 15.1716 11.3358 14.4216 11.8787 13.8787M11 16C11 16.8284 11.3358 17.5784 11.8787 18.1213M16.1213 13.8787L17 13M11.8787 13.8787L11 13M11.8787 18.1213L11 19M16.1213 18.1213L17 19M12 5C12 7.20914 10.2091 9 8 9C5.79086 9 4 7.20914 4 5C4 2.79086 5.79086 1 8 1C10.2091 1 12 2.79086 12 5Z" stroke="#686B6E" strokeWidth="1.5" strokeLinecap="round" strokeLinejoin="round"/>
</svg>
