<svg width="38" height="31" viewBox="0 0 38 31" fill="none" xmlns="http://www.w3.org/2000/svg">
<g clip-path="url(#clip0_436_1399)">
<path d="M29.3087 20.3951L7.71014 30.8999L35.6764 29.3454L37.8302 6.24805L29.3086 20.395L29.3087 20.3951Z" fill="url(#paint0_linear_436_1399)"/>
<path d="M35.7221 29.3288L33.3184 15.7402L26.771 22.8216L35.7221 29.3288Z" fill="url(#paint1_linear_436_1399)"/>
<path d="M35.7546 29.3294L18.1448 28.1973L7.80353 30.8701L35.7546 29.3294Z" fill="url(#paint2_linear_436_1399)"/>
<path d="M7.82844 30.8727L12.2277 19.0684L2.54694 20.7636L7.82829 30.8726L7.82844 30.8727Z" fill="url(#paint3_linear_436_1399)"/>
<path d="M26.7694 22.8614L22.7214 9.875L11.1374 18.769L26.7694 22.8617V22.8614Z" fill="url(#paint4_linear_436_1399)"/>
<path d="M36.9119 10.0577L25.9616 2.73242L22.9124 10.8068L36.9119 10.0577Z" fill="url(#paint5_linear_436_1399)"/>
<path d="M31.791 0.121055L25.3507 3.03627L21.2875 0.0820312L31.791 0.121055Z" fill="url(#paint6_linear_436_1399)"/>
<path d="M0 24.7239L2.69789 20.6938L0.515475 15.8926L0 24.7239Z" fill="url(#paint7_linear_436_1399)"/>
<path d="M0.370483 15.7407L2.56626 20.8421L12.1074 19.0888L23.0002 10.797L26.0743 2.79936L21.2339 0L13.0046 2.52255C10.4118 4.4978 5.38067 8.40598 5.19929 8.47941C5.0197 8.55454 1.87698 13.4198 0.370483 15.7407Z" fill="white"/>
<path d="M8.08046 6.5771C13.6998 2.01365 20.9439 -0.682495 23.7238 1.61491C26.5023 3.91231 23.5558 9.49535 17.9365 14.0573C12.3172 18.6192 5.1629 21.4639 2.38471 19.1665C-0.395266 16.8707 2.46114 11.1391 8.08046 6.5771Z" fill="url(#paint8_linear_436_1399)"/>
<path d="M7.82843 30.8673L12.1933 19.0254L26.6891 22.8397C21.4479 26.8652 15.6186 30.2683 7.82843 30.8673Z" fill="url(#paint9_linear_436_1399)"/>
<path d="M23.0193 10.7744L26.7407 22.8478C31.1189 19.0772 35.0483 15.0236 36.9727 10.0098L23.0194 10.7744H23.0193Z" fill="url(#paint10_linear_436_1399)"/>
<path d="M36.9347 10.0702C38.4242 6.38883 38.7678 1.10753 31.745 0.126953L25.9824 2.73399L36.9347 10.0702Z" fill="url(#paint11_linear_436_1399)"/>
<path d="M0 24.6699C0.206309 30.7458 5.55816 30.8363 7.83795 30.8896L2.57188 20.8164L0 24.6699Z" fill="#9E1209"/>
<path d="M23.0401 10.7925C26.4044 12.4862 33.1848 15.8877 33.3223 15.9502C33.536 16.0487 36.2455 12.2078 36.8604 10.0371L23.0401 10.7925Z" fill="url(#paint12_radial_436_1399)"/>
<path d="M12.1875 19.0254L18.0225 28.2461C21.4727 26.7135 24.1746 24.8462 26.649 22.846L12.1875 19.0254Z" fill="url(#paint13_radial_436_1399)"/>
<path d="M2.54901 20.8301L1.72229 28.8935C3.28222 30.6389 5.42843 30.7906 7.67942 30.6546C6.05077 27.3344 2.79717 20.6957 2.54901 20.8301Z" fill="url(#paint14_linear_436_1399)"/>
<path d="M25.9483 2.75463L37.5402 4.08703C36.9214 1.93988 35.0216 0.554243 31.7833 0.121094L25.9483 2.75463Z" fill="url(#paint15_linear_436_1399)"/>
</g>
<defs>
<linearGradient id="paint0_linear_436_1399" x1="2560.38" y1="2752.43" x2="1979.24" y2="1497.88" gradientUnits="userSpaceOnUse">
<stop stop-color="#FB7655"/>
<stop offset="0.41" stop-color="#E42B1E"/>
<stop offset="0.99" stop-color="#990000"/>
<stop offset="1" stop-color="#990000"/>
</linearGradient>
<linearGradient id="paint1_linear_436_1399" x1="1070.93" y1="843.156" x2="-29.8153" y2="580.637" gradientUnits="userSpaceOnUse">
<stop stop-color="#871101"/>
<stop offset="0.99" stop-color="#911209"/>
<stop offset="1" stop-color="#911209"/>
</linearGradient>
<linearGradient id="paint2_linear_436_1399" x1="2125.77" y1="614.416" x2="2116.08" y2="32.1734" gradientUnits="userSpaceOnUse">
<stop stop-color="#871101"/>
<stop offset="0.99" stop-color="#911209"/>
<stop offset="1" stop-color="#911209"/>
</linearGradient>
<linearGradient id="paint3_linear_436_1399" x1="486.702" y1="104.461" x2="718.162" y2="933.089" gradientUnits="userSpaceOnUse">
<stop stop-color="white"/>
<stop offset="0.23" stop-color="#E57252"/>
<stop offset="0.46" stop-color="#DE3B20"/>
<stop offset="0.99" stop-color="#A60003"/>
<stop offset="1" stop-color="#A60003"/>
</linearGradient>
<linearGradient id="paint4_linear_436_1399" x1="732.928" y1="222.181" x2="773.513" y2="1089.23" gradientUnits="userSpaceOnUse">
<stop stop-color="white"/>
<stop offset="0.23" stop-color="#E4714E"/>
<stop offset="0.56" stop-color="#BE1A0D"/>
<stop offset="0.99" stop-color="#A80D00"/>
<stop offset="1" stop-color="#A80D00"/>
</linearGradient>
<linearGradient id="paint5_linear_436_1399" x1="540.402" y1="128.644" x2="599.941" y2="760.396" gradientUnits="userSpaceOnUse">
<stop stop-color="white"/>
<stop offset="0.18" stop-color="#E46342"/>
<stop offset="0.4" stop-color="#C82410"/>
<stop offset="0.99" stop-color="#A80D00"/>
<stop offset="1" stop-color="#A80D00"/>
</linearGradient>
<linearGradient id="paint6_linear_436_1399" x1="164.229" y1="172.45" x2="249.289" y2="-267.896" gradientUnits="userSpaceOnUse">
<stop stop-color="white"/>
<stop offset="0.54" stop-color="#C81F11"/>
<stop offset="0.99" stop-color="#BF0905"/>
<stop offset="1" stop-color="#BF0905"/>
</linearGradient>
<linearGradient id="paint7_linear_436_1399" x1="74.5266" y1="202.543" x2="360.74" y2="421.58" gradientUnits="userSpaceOnUse">
<stop stop-color="white"/>
<stop offset="0.31" stop-color="#DE4024"/>
<stop offset="0.99" stop-color="#BF190B"/>
<stop offset="1" stop-color="#BF190B"/>
</linearGradient>
<linearGradient id="paint8_linear_436_1399" x1="-483.851" y1="2348.62" x2="1853.2" y2="-593.743" gradientUnits="userSpaceOnUse">
<stop stop-color="#BD0012"/>
<stop offset="0.07" stop-color="white"/>
<stop offset="0.17" stop-color="white"/>
<stop offset="0.27" stop-color="#C82F1C"/>
<stop offset="0.33" stop-color="#820C01"/>
<stop offset="0.46" stop-color="#A31601"/>
<stop offset="0.72" stop-color="#B31301"/>
<stop offset="0.99" stop-color="#E82609"/>
<stop offset="1" stop-color="#E82609"/>
</linearGradient>
<linearGradient id="paint9_linear_436_1399" x1="1116.68" y1="791.175" x2="344.876" y2="395.396" gradientUnits="userSpaceOnUse">
<stop stop-color="#8C0C01"/>
<stop offset="0.54" stop-color="#990C00"/>
<stop offset="0.99" stop-color="#A80D0E"/>
<stop offset="1" stop-color="#A80D0E"/>
</linearGradient>
<linearGradient id="paint10_linear_436_1399" x1="1129.79" y1="815.646" x2="396.87" y2="180.047" gradientUnits="userSpaceOnUse">
<stop stop-color="#7E110B"/>
<stop offset="0.99" stop-color="#9E0C00"/>
<stop offset="1" stop-color="#9E0C00"/>
</linearGradient>
<linearGradient id="paint11_linear_436_1399" x1="1124.72" y1="737.138" x2="803.364" y2="338.851" gradientUnits="userSpaceOnUse">
<stop stop-color="#79130D"/>
<stop offset="0.99" stop-color="#9E120B"/>
<stop offset="1" stop-color="#9E120B"/>
</linearGradient>
<radialGradient id="paint12_radial_436_1399" cx="0" cy="0" r="1" gradientUnits="userSpaceOnUse" gradientTransform="translate(465.304 247.877) scale(961.52 411.521)">
<stop stop-color="#A80D00"/>
<stop offset="0.99" stop-color="#7E0E08"/>
<stop offset="1" stop-color="#7E0E08"/>
</radialGradient>
<radialGradient id="paint13_radial_436_1399" cx="0" cy="0" r="1" gradientUnits="userSpaceOnUse" gradientTransform="translate(208.126 395.785) scale(1278.19 814.984)">
<stop stop-color="#A30C00"/>
<stop offset="0.99" stop-color="#800E08"/>
<stop offset="1" stop-color="#800E08"/>
</radialGradient>
<linearGradient id="paint14_linear_436_1399" x1="338.717" y1="1024.21" x2="-260.905" y2="416.526" gradientUnits="userSpaceOnUse">
<stop stop-color="#8B2114"/>
<stop offset="0.43" stop-color="#9E100A"/>
<stop offset="0.99" stop-color="#B3100C"/>
<stop offset="1" stop-color="#B3100C"/>
</linearGradient>
<linearGradient id="paint15_linear_436_1399" x1="383.79" y1="141.304" x2="527.194" y2="584.23" gradientUnits="userSpaceOnUse">
<stop stop-color="#B31000"/>
<stop offset="0.44" stop-color="#910F08"/>
<stop offset="0.99" stop-color="#791C12"/>
<stop offset="1" stop-color="#791C12"/>
</linearGradient>
<clipPath id="clip0_436_1399">
<rect width="38" height="31" fill="white"/>
</clipPath>
</defs>
</svg>
