<svg width="34" height="32" viewBox="0 0 34 32" fill="none" xmlns="http://www.w3.org/2000/svg">
<rect width="34" height="32" rx="12" fill="#1C1C1E"/>
<path d="M15 18C11.6863 18 9 20.6863 9 24M22 24V25M22 24C21.1716 24 20.4216 23.6642 19.8787 23.1213M22 24C22.8284 24 23.5784 23.6642 24.1213 23.1213M25 21H26M25 21C25 20.1716 24.6642 19.4216 24.1213 18.8787M25 21C25 21.8284 24.6642 22.5784 24.1213 23.1213M22 18V17M22 18C22.8284 18 23.5784 18.3358 24.1213 18.8787M22 18C21.1716 18 20.4216 18.3358 19.8787 18.8787M19 21H18M19 21C19 20.1716 19.3358 19.4216 19.8787 18.8787M19 21C19 21.8284 19.3358 22.5784 19.8787 23.1213M24.1213 18.8787L25 18M19.8787 18.8787L19 18M19.8787 23.1213L19 24M24.1213 23.1213L25 24M20 10C20 12.2091 18.2091 14 16 14C13.7909 14 12 12.2091 12 10C12 7.79086 13.7909 6 16 6C18.2091 6 20 7.79086 20 10Z" stroke="#7DEA4D" strokeWidth="1.5" strokeLinecap="round" strokeLinejoin="round"/>
</svg>
