<svg width="14" height="14" viewBox="0 0 14 14" fill="none" xmlns="http://www.w3.org/2000/svg">
<path fill-rule="evenodd" clip-rule="evenodd" d="M0.333008 7.00065C0.333008 3.31875 3.31778 0.333984 6.99967 0.333984C10.6816 0.333984 13.6663 3.31875 13.6663 7.00065C13.6663 10.6826 10.6816 13.6673 6.99967 13.6673C3.31778 13.6673 0.333008 10.6826 0.333008 7.00065ZM6.99967 3.66732C6.63148 3.66732 6.33301 3.96579 6.33301 4.33398C6.33301 4.70217 6.63148 5.00065 6.99967 5.00065H7.00634C7.37453 5.00065 7.67301 4.70217 7.67301 4.33398C7.67301 3.96579 7.37453 3.66732 7.00634 3.66732H6.99967ZM7.66634 7.00065C7.66634 6.63246 7.36786 6.33398 6.99967 6.33398C6.63148 6.33398 6.33301 6.63246 6.33301 7.00065V9.66732C6.33301 10.0355 6.63148 10.334 6.99967 10.334C7.36786 10.334 7.66634 10.0355 7.66634 9.66732V7.00065Z" fill="#686B6E"/>
</svg>
