<svg width="18" height="18" viewBox="0 0 18 18" fill="none" xmlns="http://www.w3.org/2000/svg">
<path d="M8.08094 1.64069C8.42102 0.786437 9.57934 0.786437 9.91943 1.64069L11.4 5.35972C11.5434 5.71985 11.8676 5.96591 12.2397 5.99708L16.0827 6.31896C16.9655 6.39289 17.3234 7.54381 16.6509 8.1457L13.7229 10.7661C13.4393 11.0198 13.3155 11.4179 13.4021 11.7973L14.2967 15.7153C14.5022 16.6152 13.5651 17.3265 12.8093 16.8443L9.51914 14.7447C9.20053 14.5414 8.79983 14.5414 8.48123 14.7447L5.19104 16.8443C4.43529 17.3265 3.4982 16.6152 3.70367 15.7153L4.59822 11.7973C4.68485 11.4179 4.56102 11.0198 4.27749 10.7661L1.34949 8.1457C0.676938 7.54381 1.03488 6.39289 1.91762 6.31896L5.76067 5.99708C6.13281 5.96591 6.45698 5.71985 6.60035 5.35972L8.08094 1.64069Z" stroke="#686B6E" strokeWidth="1.5" strokeLinecap="round" strokeLinejoin="round"/>
</svg>
