    <svg width="33" height="29" viewBox="0 0 33 29" fill="none" xmlns="http://www.w3.org/2000/svg">
    <g clip-path="url(#clip0_53_4366)">
    <path d="M7.33476 0H25.6137C26.5031 0 27.3668 0.124609 28.2047 0.385156C29.4164 0.770313 30.5121 1.45 31.3371 2.33359C32.175 3.21719 32.7293 4.30469 32.9226 5.4375C33 5.85664 33.0129 6.27578 33.0129 6.69492V22.3617C33.0129 22.8602 32.9871 23.3699 32.8711 23.857C32.6133 24.9785 32.0074 26.032 31.1308 26.8816C30.2672 27.7313 29.1328 28.3656 27.9082 28.7055C27.1605 28.9094 26.3871 29 25.6008 29C25.2527 29 7.2832 29 7.01249 28.9887C5.69765 28.932 4.3957 28.5582 3.29999 27.9125C2.23007 27.2781 1.35351 26.3945 0.786322 25.375C0.296479 24.5027 0.0515568 23.5285 0.0515568 22.5543V6.4457C0.0257755 5.48281 0.257807 4.53125 0.73476 3.67031C1.28906 2.65078 2.15273 1.75586 3.22265 1.12148C4.31835 0.464453 5.60742 0.0792969 6.92226 0.0226563C7.05117 0 7.19296 0 7.33476 0Z" fill="url(#paint0_linear_53_4366)"/>
    <path d="M27.8438 23.7211C27.7277 23.5625 27.5988 23.4039 27.457 23.2566C27.1348 22.9168 26.7609 22.6223 26.3484 22.373C25.8328 22.0672 25.227 21.8746 24.6082 21.852C24.1699 21.8293 23.7316 21.8973 23.3191 22.0332C22.9066 22.1578 22.507 22.3391 22.1203 22.5203C21.6691 22.7242 21.218 22.9281 20.741 23.098C20.1738 23.302 19.5809 23.4605 18.975 23.5738C18.2145 23.6984 17.441 23.7437 16.6805 23.7324C15.3012 23.7098 13.9219 23.5285 12.607 23.1887C11.4469 22.8828 10.3383 22.4637 9.29414 21.9313C8.37891 21.4668 7.52813 20.9344 6.72891 20.334C6.07149 19.8355 5.46563 19.3031 4.89844 18.7367C4.51172 18.3402 4.13789 17.9211 3.78984 17.4906C3.64805 17.3207 3.51914 17.1395 3.40313 16.9582L0 13.7297V6.42305C0 2.87734 3.26133 0 7.29609 0H13.8059L18.627 4.30469C29.5066 10.807 25.9875 17.9777 25.9875 17.9777C25.9875 17.9777 29.0813 21.0363 27.8438 23.7211Z" fill="url(#paint1_linear_53_4366)"/>
    <path d="M18.6527 4.30469C29.5324 10.807 26.0133 17.9777 26.0133 17.9777C26.0133 17.9777 29.107 21.0477 27.8567 23.7324C27.8567 23.7324 26.5805 21.852 24.4406 21.852C22.3781 21.852 21.1664 23.7324 17.0156 23.7324C7.77306 23.7324 3.40314 16.9469 3.40314 16.9469C11.7305 21.7613 17.4152 18.3516 17.4152 18.3516C13.6641 16.4371 5.68478 7.28398 5.68478 7.28398C12.6328 12.4836 15.6363 13.8543 15.6363 13.8543C13.8445 12.5516 8.8172 6.18516 8.8172 6.18516C12.8391 9.76484 20.8313 14.7605 20.8313 14.7605C23.1 9.23242 18.6527 4.30469 18.6527 4.30469Z" fill="white"/>
    </g>
    <defs>
    <linearGradient id="paint0_linear_53_4366" x1="19.6313" y1="-1.03482" x2="14.783" y2="30.2532" gradientUnits="userSpaceOnUse">
    <stop stop-color="#FAAE42"/>
    <stop offset="1" stop-color="#EF3E31"/>
    </linearGradient>
    <linearGradient id="paint1_linear_53_4366" x1="16.8367" y1="0.468531" x2="13.2884" y2="23.3678" gradientUnits="userSpaceOnUse">
    <stop stop-color="#E39F3A"/>
    <stop offset="1" stop-color="#D33929"/>
    </linearGradient>
    <clipPath id="clip0_53_4366">
    <rect width="33" height="29" fill="white"/>
    </clipPath>
    </defs>
    </svg>
