<svg width="569" height="411" viewBox="0 0 569 411" fill="none" xmlns="http://www.w3.org/2000/svg">
<g clip-path="url(#clip0_1_18)">
<path d="M60.5 175.912L165.5 246.912L168.5 250.25L171 254.25L172.5 258.75L173 262.75V267.25L172.5 271.75L170.5 275.75L167.5 279.25L165 281.75L162 283.75L159 285.25L155.5 286.25L148.5 286.75L141.5 284.912L90.5 250.25L75 214.25L61 190.75L48.5 175.912H60.5Z" fill="#1C3263"/>
<path d="M46 176.25L141.5 113.25L149.5 111.75L157.5 112.25L164.5 116.25L170 121.75L173 129.25L173.5 136.75L171.5 144.75L167 151.25L94.5 199.75L59.5 176.25H46Z" fill="#1E2049"/>
<path d="M40 180.25L46 176.25H49L61 190.75L63 193.75L75 214.25L90.5 250.25L40 216.25L36.5 212.75L34 208.25L32.5 203.25L31.5 198.25L32.5 192.75L34 187.75L36.5 183.75L40 180.25Z" fill="#1E2248"/>
</g>
<g clip-path="url(#clip1_1_18)">
<path d="M192.75 302L296.25 139L291.75 155.5L290.75 173.5V191.5L291.25 203L290.75 222.5L285.25 246.5L234.25 328.5L227.75 335L219.25 337.5H210.25L201.75 334L196.25 329.5L191.75 322L190.75 312L192.75 302Z" fill="#17455F"/>
<path d="M339.25 69L345.25 64L349.25 62L354.75 61H358.25L362.25 61.5L366.75 62.5L370.75 64.5L374.75 68L377.25 71L379.25 74.5L380.25 77.5L381.25 81L381.75 85.5L380.25 94.5L285.25 246.5L288.25 232L290.25 223L290.75 214L291.25 200.5L290.25 190V179.5V167.5L291.75 155.5L296.25 139L302.75 127.5L339.25 69Z" fill="#03ABAC"/>
<circle cx="218.25" cy="95.5" r="32.5" fill="#1C3263"/>
<circle cx="352.25" cy="304.5" r="32.5" fill="#0C6472"/>
</g>
<g clip-path="url(#clip2_1_18)">
<path d="M427.5 112L466.5 138.5L483.5 176.5L497.5 202L512.5 216.5L524.5 220.5L512 220L504.5 217L489 208.5L460 189.5L403.5 151L399 144.5L397 136.5L398 128.5L401.5 121.5L406 116.5L412.5 113L419.5 112H427.5Z" fill="#03ABAC"/>
<path d="M466.5 138.5L499 160.5L531.5 182L535.5 187L538 192.5L539 198.5L538.5 204L536.5 210L534 214L530 218L525.5 221L512.5 216.5L497.5 202L488.5 186L479 168.5L466.5 138.5Z" fill="#088386"/>
<path d="M475.5 199.67L497.5 213L512 220L524 220.5L525.5 221L522.5 223L519.5 225.17L503.5 235.5L422.5 234.67L475.5 199.67Z" fill="#17475E"/>
</g>
<path d="M422 234.687L502.5 235.5L435 280.5L431.5 283L428.5 284.5L424 286L419 286.5L414 285.5L409.5 284L405.5 281.5L402 278L399.5 274.5L398 270.5L397 265.5V261L398 257L399.5 253L404.5 246L422 234.687Z" fill="#0E6272"/>
<defs>
<clipPath id="clip0_1_18">
<rect width="142" height="175" fill="white" transform="translate(31.5 111.75)"/>
</clipPath>
<clipPath id="clip1_1_18">
<rect width="199" height="276.5" fill="white" transform="translate(185.75 61)"/>
</clipPath>
<clipPath id="clip2_1_18">
<rect width="142" height="123.5" fill="white" transform="translate(397 112)"/>
</clipPath>
</defs>
</svg>
