<svg width="24" height="24" viewBox="0 0 20 20" fill="none" xmlns="http://www.w3.org/2000/svg">
<path fill-rule="evenodd" clip-rule="evenodd" d="M0 4C0 1.79086 1.79086 0 4 0H16C18.2091 0 20 1.79086 20 4V16C20 18.2091 18.2091 20 16 20H4C1.79086 20 0 18.2091 0 16V4ZM14.7071 8.70711C15.0976 8.31658 15.0976 7.68342 14.7071 7.29289C14.3166 6.90237 13.6834 6.90237 13.2929 7.29289L9 11.5858L6.70711 9.29289C6.31658 8.90237 5.68342 8.90237 5.29289 9.29289C4.90237 9.68342 4.90237 10.3166 5.29289 10.7071L7.58579 13C8.36683 13.781 9.63316 13.781 10.4142 13L14.7071 8.70711Z" fill="#CDCECF"/>
</svg>
