<svg width="184" height="46" viewBox="0 0 184 46" fill="none" xmlns="http://www.w3.org/2000/svg">
                                    <mask id="mask0_15_2167" style="mask-type: luminance" maskUnits="userSpaceOnUse" x="2" y="12" width="12" height="20">
                                        <path d="M13.4165 12.9629H2.43585V31.6977H13.4165V12.9629Z" fill="white" />
                                    </mask>
                                    <g mask="url(#mask0_15_2167)">
                                        <path d="M4.67837 19.832L12.7979 27.433L13.0299 27.7904L13.2232 28.2186L13.3392 28.7003L13.3778 29.1286V29.6103L13.3392 30.0921L13.1845 30.5203L12.9525 30.895L12.7592 31.1626L12.5272 31.3767L12.2952 31.5373L12.0246 31.6444L11.4833 31.6979L10.942 31.5011L6.99823 27.7904L5.79964 23.9363L4.71704 21.4205L3.75043 19.832H4.67837Z" fill="#1C3263" />
                                        <path d="M3.55713 19.868L10.942 13.1235L11.5606 12.9629L12.1793 13.0164L12.7206 13.4446L13.1459 14.0335L13.3779 14.8364L13.4165 15.6393L13.2619 16.4957L12.9139 17.1916L7.30757 22.3838L4.60107 19.868H3.55713Z" fill="#1E2049" />
                                        <path d="M3.09315 20.2954L3.55712 19.8672H3.7891L4.71705 21.4195L4.8717 21.7407L5.79965 23.9353L6.99824 27.7893L3.09315 24.1494L2.8225 23.7747L2.62917 23.293L2.51318 22.7577L2.43585 22.2224L2.51318 21.6336L2.62917 21.0983L2.8225 20.6701L3.09315 20.2954Z" fill="#1E2248" />
                                    </g>
                                    <mask id="mask1_15_2167" style="mask-type: luminance" maskUnits="userSpaceOnUse" x="14" y="7" width="16" height="31">
                                        <path d="M29.7522 7.53125H14.3638V37.1322H29.7522V7.53125Z" fill="white" />
                                    </mask>
                                    <g mask="url(#mask1_15_2167)">
                                        <path d="M14.9051 33.331L22.9086 15.8809L22.5606 17.6473L22.4833 19.5743V21.5013L22.522 22.7324L22.4833 24.82L22.058 27.3894L18.1142 36.168L17.6116 36.8638L16.9543 37.1315H16.2583L15.601 36.7568L15.1757 36.275L14.8278 35.4721L14.7504 34.4015L14.9051 33.331Z" fill="#17455F" />
                                        <path d="M26.2337 8.3877L26.6977 7.85242L27.007 7.63831L27.4323 7.53125H27.703L28.0123 7.58478L28.3603 7.69183L28.6696 7.90595L28.9789 8.28064L29.1722 8.60181L29.3269 8.97651L29.4042 9.29767L29.4815 9.67237L29.5202 10.1541L29.4042 11.1176L22.058 27.3901L22.29 25.8378L22.4446 24.8743L22.4833 23.9108L22.522 22.4656L22.4446 21.3415V20.2174V18.9327L22.5606 17.648L22.9086 15.8816L23.4112 14.6505L26.2337 8.3877Z" fill="#03ABAC" />
                                        <path d="M16.877 14.7047C18.2649 14.7047 19.3901 13.147 19.3901 11.2254C19.3901 9.30384 18.2649 7.74609 16.877 7.74609C15.489 7.74609 14.3638 9.30384 14.3638 11.2254C14.3638 13.147 15.489 14.7047 16.877 14.7047Z" fill="#1C3263" />
                                        <path d="M27.239 37.0778C28.627 37.0778 29.7522 35.52 29.7522 33.5985C29.7522 31.6769 28.627 30.1191 27.239 30.1191C25.851 30.1191 24.7258 31.6769 24.7258 33.5985C24.7258 35.52 25.851 37.0778 27.239 37.0778Z" fill="#0C6472" />
                                    </g>
                                    <mask id="mask2_15_2167" style="mask-type: luminance" maskUnits="userSpaceOnUse" x="30" y="12" width="12" height="15">
                                        <path d="M41.6801 12.9902H30.6995V26.2116H41.6801V12.9902Z" fill="white" />
                                    </mask>
                                    <g mask="url(#mask2_15_2167)">
                                        <path d="M33.058 12.9902L36.0738 15.8272L37.3884 19.8953L38.471 22.6253L39.6309 24.1776L40.5589 24.6058L39.5923 24.5523L39.0123 24.2311L37.8137 23.3211L35.5712 21.2871L31.2021 17.1654L30.8541 16.4696L30.6995 15.6131L30.7768 14.7567L31.0474 14.0073L31.3954 13.472L31.8981 13.0973L32.4394 12.9902H33.058Z" fill="#03ABAC" />
                                        <path d="M36.0738 15.8281L38.587 18.1834L41.1002 20.4851L41.4095 21.0203L41.6028 21.6091L41.6801 22.2515L41.6415 22.8403L41.4868 23.4826L41.2935 23.9108L40.9842 24.3391L40.6362 24.6602L39.6309 24.1785L38.471 22.6262L37.775 20.9133L37.0404 19.0398L36.0738 15.8281Z" fill="#088386" />
                                        <path d="M36.7697 22.375L38.471 23.8021L39.5922 24.5514L40.5202 24.605L40.6362 24.6585L40.4042 24.8726L40.1722 25.1049L38.9349 26.2108L32.6713 26.122L36.7697 22.375Z" fill="#17475E" />
                                    </g>
                                    <path d="M32.6327 26.125L38.8576 26.212L33.638 31.0296L33.3673 31.2972L33.1353 31.4578L32.7873 31.6184L32.4007 31.6719L32.0141 31.5648L31.6661 31.4043L31.3568 31.1366L31.0861 30.7619L30.8928 30.3872L30.7768 29.959L30.6995 29.4237V28.942L30.7768 28.5137L30.8928 28.0855L31.2794 27.3361L32.6327 26.125Z" fill="#0E6272" />
                                    <path d="M68.7563 19L64.5323 7.08H66.5643L70.0203 17.256H69.6203L73.0603 7.08H75.0923L70.8683 19H68.7563ZM81.884 19.192C81.0413 19.192 80.2573 19.0373 79.532 18.728C78.8173 18.4187 78.1933 17.992 77.66 17.448C77.1373 16.8933 76.7267 16.2427 76.428 15.496C76.1293 14.7493 75.98 13.928 75.98 13.032C75.98 12.1467 76.124 11.3307 76.412 10.584C76.7107 9.82667 77.1267 9.176 77.66 8.632C78.1933 8.07733 78.8173 7.65067 79.532 7.352C80.2467 7.04267 81.0307 6.888 81.884 6.888C82.7267 6.888 83.4787 7.032 84.14 7.32C84.812 7.608 85.3773 7.98667 85.836 8.456C86.2947 8.91467 86.6253 9.416 86.828 9.96L85.132 10.76C84.876 10.12 84.4653 9.60267 83.9 9.208C83.3453 8.80267 82.6733 8.6 81.884 8.6C81.0947 8.6 80.396 8.78667 79.788 9.16C79.18 9.53333 78.7053 10.0507 78.364 10.712C78.0333 11.3733 77.868 12.1467 77.868 13.032C77.868 13.9173 78.0333 14.696 78.364 15.368C78.7053 16.0293 79.18 16.5467 79.788 16.92C80.396 17.2827 81.0947 17.464 81.884 17.464C82.6733 17.464 83.3453 17.2667 83.9 16.872C84.4653 16.4773 84.876 15.96 85.132 15.32L86.828 16.12C86.6253 16.6533 86.2947 17.1547 85.836 17.624C85.3773 18.0933 84.812 18.472 84.14 18.76C83.4787 19.048 82.7267 19.192 81.884 19.192ZM98.9893 19.192C98.2426 19.192 97.5493 19.0533 96.9093 18.776C96.2693 18.488 95.7253 18.0987 95.2773 17.608C94.8293 17.1173 94.4986 16.552 94.2853 15.912L95.8853 15.24C96.1733 15.976 96.5946 16.5413 97.1493 16.936C97.7039 17.3307 98.3439 17.528 99.0693 17.528C99.4959 17.528 99.8693 17.464 100.189 17.336C100.509 17.1973 100.755 17.0053 100.925 16.76C101.107 16.5147 101.197 16.232 101.197 15.912C101.197 15.4747 101.075 15.128 100.829 14.872C100.584 14.616 100.221 14.4133 99.7413 14.264L97.5013 13.56C96.6053 13.2827 95.9226 12.8613 95.4533 12.296C94.9839 11.72 94.7493 11.048 94.7493 10.28C94.7493 9.608 94.9146 9.02133 95.2453 8.52C95.5759 8.008 96.0293 7.608 96.6053 7.32C97.1919 7.032 97.8586 6.888 98.6053 6.888C99.3199 6.888 99.9706 7.016 100.557 7.272C101.144 7.51733 101.645 7.85867 102.061 8.296C102.488 8.73333 102.797 9.24 102.989 9.816L101.421 10.504C101.187 9.87467 100.819 9.38933 100.317 9.048C99.8266 8.70667 99.2559 8.536 98.6053 8.536C98.2106 8.536 97.8639 8.60533 97.5653 8.744C97.2666 8.872 97.0319 9.064 96.8613 9.32C96.7013 9.56533 96.6213 9.85333 96.6213 10.184C96.6213 10.568 96.7439 10.9093 96.9893 11.208C97.2346 11.5067 97.6079 11.7307 98.1093 11.88L100.189 12.536C101.139 12.824 101.853 13.24 102.333 13.784C102.813 14.3173 103.053 14.984 103.053 15.784C103.053 16.4453 102.877 17.032 102.525 17.544C102.184 18.056 101.709 18.4613 101.101 18.76C100.493 19.048 99.7893 19.192 98.9893 19.192ZM108.891 19.096C107.984 19.096 107.28 18.84 106.779 18.328C106.277 17.816 106.027 17.096 106.027 16.168V11.976H104.507V10.344H104.747C105.152 10.344 105.467 10.2267 105.691 9.992C105.915 9.75733 106.027 9.43733 106.027 9.032V8.36H107.835V10.344H109.803V11.976H107.835V16.088C107.835 16.3867 107.883 16.6427 107.979 16.856C108.075 17.0587 108.229 17.2187 108.443 17.336C108.656 17.4427 108.933 17.496 109.275 17.496C109.36 17.496 109.456 17.4907 109.563 17.48C109.669 17.4693 109.771 17.4587 109.867 17.448V19C109.717 19.0213 109.552 19.0427 109.371 19.064C109.189 19.0853 109.029 19.096 108.891 19.096ZM114.869 19.192C114.218 19.192 113.648 19.048 113.157 18.76C112.666 18.4613 112.282 18.0507 112.005 17.528C111.738 16.9947 111.605 16.3813 111.605 15.688V10.344H113.413V15.528C113.413 15.9227 113.493 16.2693 113.653 16.568C113.813 16.8667 114.037 17.1013 114.325 17.272C114.613 17.432 114.944 17.512 115.317 17.512C115.701 17.512 116.037 17.4267 116.325 17.256C116.613 17.0853 116.837 16.8453 116.997 16.536C117.168 16.2267 117.253 15.864 117.253 15.448V10.344H119.045V19H117.333V17.304L117.525 17.528C117.322 18.0613 116.986 18.472 116.517 18.76C116.048 19.048 115.498 19.192 114.869 19.192ZM125.306 19.192C124.474 19.192 123.727 18.9947 123.066 18.6C122.415 18.1947 121.898 17.6507 121.514 16.968C121.141 16.2853 120.954 15.5173 120.954 14.664C120.954 13.8107 121.146 13.0427 121.53 12.36C121.914 11.6773 122.431 11.1387 123.082 10.744C123.733 10.3493 124.469 10.152 125.29 10.152C125.983 10.152 126.597 10.2907 127.13 10.568C127.663 10.8453 128.085 11.2293 128.394 11.72L128.122 12.136V6.888H129.914V19H128.202V17.24L128.41 17.576C128.111 18.0987 127.685 18.4987 127.13 18.776C126.575 19.0533 125.967 19.192 125.306 19.192ZM125.482 17.512C125.983 17.512 126.431 17.3893 126.826 17.144C127.231 16.8987 127.546 16.5627 127.77 16.136C128.005 15.6987 128.122 15.208 128.122 14.664C128.122 14.12 128.005 13.6347 127.77 13.208C127.546 12.7813 127.231 12.4453 126.826 12.2C126.431 11.9547 125.983 11.832 125.482 11.832C124.981 11.832 124.527 11.9547 124.122 12.2C123.717 12.4453 123.402 12.7813 123.178 13.208C122.954 13.6347 122.842 14.12 122.842 14.664C122.842 15.208 122.954 15.6987 123.178 16.136C123.402 16.5627 123.711 16.8987 124.106 17.144C124.511 17.3893 124.97 17.512 125.482 17.512ZM132.175 19V10.344H133.983V19H132.175ZM132.175 9.16V7.08H133.983V9.16H132.175ZM140.423 19.192C139.591 19.192 138.828 18.9947 138.135 18.6C137.452 18.2053 136.908 17.6667 136.503 16.984C136.097 16.3013 135.895 15.528 135.895 14.664C135.895 13.7893 136.097 13.016 136.503 12.344C136.908 11.6613 137.452 11.128 138.135 10.744C138.817 10.3493 139.58 10.152 140.423 10.152C141.276 10.152 142.039 10.3493 142.711 10.744C143.393 11.128 143.932 11.6613 144.327 12.344C144.732 13.016 144.935 13.7893 144.935 14.664C144.935 15.5387 144.732 16.3173 144.327 17C143.921 17.6827 143.377 18.2213 142.695 18.616C142.012 19 141.255 19.192 140.423 19.192ZM140.423 17.512C140.935 17.512 141.388 17.3893 141.783 17.144C142.177 16.8987 142.487 16.5627 142.711 16.136C142.945 15.6987 143.063 15.208 143.063 14.664C143.063 14.12 142.945 13.6347 142.711 13.208C142.487 12.7813 142.177 12.4453 141.783 12.2C141.388 11.9547 140.935 11.832 140.423 11.832C139.921 11.832 139.468 11.9547 139.063 12.2C138.668 12.4453 138.353 12.7813 138.119 13.208C137.895 13.6347 137.783 14.12 137.783 14.664C137.783 15.208 137.895 15.6987 138.119 16.136C138.353 16.5627 138.668 16.8987 139.063 17.144C139.468 17.3893 139.921 17.512 140.423 17.512Z" fill="white" />
                                    <path d="M67.5416 42L64.3136 33.06H65.5736L68.3096 40.92H68.0576L70.7936 33.06H72.0536L68.8376 42H67.5416ZM73.1995 42V35.532H74.3155V42H73.1995ZM73.1995 34.5V33.06H74.3155V34.5H73.1995ZM76.1972 42V35.532H77.2892V36.72L77.1692 36.552C77.3212 36.184 77.5532 35.912 77.8652 35.736C78.1772 35.552 78.5572 35.46 79.0052 35.46H79.4012V36.516H78.8372C78.3812 36.516 78.0132 36.66 77.7332 36.948C77.4532 37.228 77.3132 37.628 77.3132 38.148V42H76.1972ZM83.2291 42.072C82.5971 42.072 82.1091 41.892 81.7651 41.532C81.4291 41.172 81.2611 40.664 81.2611 40.008V36.6H80.0851V35.532H80.3251C80.6131 35.532 80.8411 35.444 81.0091 35.268C81.1771 35.092 81.2611 34.86 81.2611 34.572V34.044H82.3771V35.532H83.8291V36.6H82.3771V39.972C82.3771 40.188 82.4091 40.376 82.4731 40.536C82.5451 40.696 82.6611 40.824 82.8211 40.92C82.9811 41.008 83.1931 41.052 83.4571 41.052C83.5131 41.052 83.5811 41.048 83.6611 41.04C83.7491 41.032 83.8291 41.024 83.9011 41.016V42C83.7971 42.024 83.6811 42.04 83.5531 42.048C83.4251 42.064 83.3171 42.072 83.2291 42.072ZM87.8009 42.144C87.3369 42.144 86.9169 42.036 86.5409 41.82C86.1729 41.604 85.8849 41.304 85.6769 40.92C85.4769 40.528 85.3769 40.08 85.3769 39.576V35.532H86.4929V39.456C86.4929 39.776 86.5569 40.056 86.6849 40.296C86.8209 40.536 87.0049 40.724 87.2369 40.86C87.4769 40.996 87.7489 41.064 88.0529 41.064C88.3569 41.064 88.6249 40.996 88.8569 40.86C89.0969 40.724 89.2809 40.528 89.4089 40.272C89.5449 40.016 89.6129 39.712 89.6129 39.36V35.532H90.7409V42H89.6489V40.74L89.8289 40.848C89.6769 41.256 89.4169 41.576 89.0489 41.808C88.6889 42.032 88.2729 42.144 87.8009 42.144ZM94.5159 42.144C94.0919 42.144 93.7159 42.068 93.3879 41.916C93.0679 41.756 92.8159 41.54 92.6319 41.268C92.4479 40.988 92.3559 40.668 92.3559 40.308C92.3559 39.964 92.4279 39.656 92.5719 39.384C92.7239 39.104 92.9559 38.868 93.2679 38.676C93.5879 38.484 93.9879 38.348 94.4679 38.268L96.8679 37.872V38.808L94.7199 39.168C94.3039 39.24 93.9999 39.372 93.8079 39.564C93.6239 39.756 93.5319 39.992 93.5319 40.272C93.5319 40.536 93.6359 40.756 93.8439 40.932C94.0599 41.108 94.3279 41.196 94.6479 41.196C95.0559 41.196 95.4079 41.112 95.7039 40.944C96.0079 40.768 96.2439 40.532 96.4119 40.236C96.5879 39.94 96.6759 39.612 96.6759 39.252V37.608C96.6759 37.256 96.5439 36.972 96.2799 36.756C96.0239 36.532 95.6839 36.42 95.2599 36.42C94.8919 36.42 94.5639 36.516 94.2759 36.708C93.9959 36.892 93.7879 37.14 93.6519 37.452L92.6799 36.948C92.7999 36.652 92.9919 36.388 93.2559 36.156C93.5199 35.916 93.8279 35.728 94.1799 35.592C94.5319 35.456 94.8999 35.388 95.2839 35.388C95.7799 35.388 96.2159 35.484 96.5919 35.676C96.9679 35.86 97.2599 36.12 97.4679 36.456C97.6839 36.784 97.7919 37.168 97.7919 37.608V42H96.6999V40.776L96.9039 40.848C96.7679 41.104 96.5839 41.328 96.3519 41.52C96.1199 41.712 95.8479 41.864 95.5359 41.976C95.2239 42.088 94.8839 42.144 94.5159 42.144ZM99.6722 42V32.916H100.788V42H99.6722ZM109.142 42.144C108.51 42.144 107.926 42.032 107.39 41.808C106.862 41.576 106.398 41.252 105.998 40.836C105.606 40.42 105.302 39.932 105.086 39.372C104.87 38.812 104.762 38.2 104.762 37.536C104.762 36.864 104.87 36.248 105.086 35.688C105.302 35.128 105.606 34.64 105.998 34.224C106.39 33.808 106.854 33.488 107.39 33.264C107.926 33.032 108.51 32.916 109.142 32.916C109.758 32.916 110.31 33.024 110.798 33.24C111.294 33.456 111.71 33.736 112.046 34.08C112.39 34.424 112.634 34.792 112.778 35.184L111.698 35.676C111.49 35.18 111.166 34.78 110.726 34.476C110.286 34.164 109.758 34.008 109.142 34.008C108.518 34.008 107.962 34.156 107.474 34.452C106.994 34.748 106.618 35.16 106.346 35.688C106.074 36.216 105.938 36.832 105.938 37.536C105.938 38.232 106.074 38.844 106.346 39.372C106.618 39.9 106.994 40.312 107.474 40.608C107.962 40.904 108.518 41.052 109.142 41.052C109.758 41.052 110.286 40.9 110.726 40.596C111.166 40.284 111.49 39.88 111.698 39.384L112.778 39.876C112.634 40.268 112.39 40.636 112.046 40.98C111.71 41.324 111.294 41.604 110.798 41.82C110.31 42.036 109.758 42.144 109.142 42.144ZM117.35 42.144C116.726 42.144 116.162 42 115.658 41.712C115.154 41.416 114.754 41.012 114.458 40.5C114.162 39.988 114.014 39.408 114.014 38.76C114.014 38.112 114.158 37.536 114.446 37.032C114.742 36.528 115.142 36.128 115.646 35.832C116.15 35.536 116.718 35.388 117.35 35.388C117.974 35.388 118.538 35.536 119.042 35.832C119.546 36.12 119.942 36.516 120.23 37.02C120.526 37.524 120.674 38.104 120.674 38.76C120.674 39.416 120.522 40 120.218 40.512C119.914 41.016 119.51 41.416 119.006 41.712C118.51 42 117.958 42.144 117.35 42.144ZM117.35 41.064C117.75 41.064 118.11 40.964 118.43 40.764C118.758 40.564 119.014 40.288 119.198 39.936C119.39 39.584 119.486 39.192 119.486 38.76C119.486 38.32 119.39 37.932 119.198 37.596C119.014 37.252 118.758 36.98 118.43 36.78C118.11 36.572 117.75 36.468 117.35 36.468C116.942 36.468 116.574 36.572 116.246 36.78C115.926 36.98 115.67 37.252 115.478 37.596C115.286 37.932 115.19 38.32 115.19 38.76C115.19 39.192 115.286 39.584 115.478 39.936C115.67 40.288 115.926 40.564 116.246 40.764C116.574 40.964 116.942 41.064 117.35 41.064ZM122.28 42V32.916H123.396V42H122.28ZM125.278 42V32.916H126.394V42H125.278ZM130.171 42.144C129.747 42.144 129.371 42.068 129.043 41.916C128.723 41.756 128.471 41.54 128.287 41.268C128.103 40.988 128.011 40.668 128.011 40.308C128.011 39.964 128.083 39.656 128.227 39.384C128.379 39.104 128.611 38.868 128.923 38.676C129.243 38.484 129.643 38.348 130.123 38.268L132.523 37.872V38.808L130.375 39.168C129.959 39.24 129.655 39.372 129.463 39.564C129.279 39.756 129.187 39.992 129.187 40.272C129.187 40.536 129.291 40.756 129.499 40.932C129.715 41.108 129.983 41.196 130.303 41.196C130.711 41.196 131.063 41.112 131.359 40.944C131.663 40.768 131.899 40.532 132.067 40.236C132.243 39.94 132.331 39.612 132.331 39.252V37.608C132.331 37.256 132.199 36.972 131.935 36.756C131.679 36.532 131.339 36.42 130.915 36.42C130.547 36.42 130.219 36.516 129.931 36.708C129.651 36.892 129.443 37.14 129.307 37.452L128.335 36.948C128.455 36.652 128.647 36.388 128.911 36.156C129.175 35.916 129.483 35.728 129.835 35.592C130.187 35.456 130.555 35.388 130.939 35.388C131.435 35.388 131.871 35.484 132.247 35.676C132.623 35.86 132.915 36.12 133.123 36.456C133.339 36.784 133.447 37.168 133.447 37.608V42H132.355V40.776L132.559 40.848C132.423 41.104 132.239 41.328 132.007 41.52C131.775 41.712 131.503 41.864 131.191 41.976C130.879 42.088 130.539 42.144 130.171 42.144ZM138.676 42.144C138.156 42.144 137.68 42.028 137.248 41.796C136.824 41.564 136.496 41.236 136.264 40.812L136.42 40.62V42H135.328V32.916H136.444V36.924L136.276 36.648C136.516 36.264 136.844 35.96 137.26 35.736C137.676 35.504 138.152 35.388 138.688 35.388C139.296 35.388 139.84 35.536 140.32 35.832C140.808 36.128 141.192 36.532 141.472 37.044C141.752 37.548 141.892 38.124 141.892 38.772C141.892 39.404 141.752 39.976 141.472 40.488C141.192 41 140.808 41.404 140.32 41.7C139.84 41.996 139.292 42.144 138.676 42.144ZM138.592 41.064C139 41.064 139.364 40.964 139.684 40.764C140.004 40.564 140.252 40.292 140.428 39.948C140.612 39.596 140.704 39.204 140.704 38.772C140.704 38.324 140.612 37.932 140.428 37.596C140.252 37.252 140.004 36.98 139.684 36.78C139.364 36.572 139 36.468 138.592 36.468C138.184 36.468 137.816 36.568 137.488 36.768C137.168 36.968 136.912 37.244 136.72 37.596C136.536 37.94 136.444 38.332 136.444 38.772C136.444 39.204 136.536 39.596 136.72 39.948C136.912 40.292 137.168 40.564 137.488 40.764C137.816 40.964 138.184 41.064 138.592 41.064ZM148.933 42.144C148.365 42.144 147.845 42.04 147.373 41.832C146.901 41.616 146.501 41.324 146.173 40.956C145.845 40.588 145.609 40.176 145.465 39.72L146.485 39.3C146.701 39.876 147.021 40.32 147.445 40.632C147.877 40.936 148.381 41.088 148.957 41.088C149.309 41.088 149.617 41.032 149.881 40.92C150.145 40.808 150.349 40.652 150.493 40.452C150.645 40.244 150.721 40.004 150.721 39.732C150.721 39.356 150.613 39.06 150.397 38.844C150.189 38.62 149.881 38.452 149.473 38.34L147.829 37.836C147.181 37.636 146.685 37.32 146.341 36.888C145.997 36.456 145.825 35.96 145.825 35.4C145.825 34.912 145.941 34.484 146.173 34.116C146.413 33.74 146.741 33.448 147.157 33.24C147.581 33.024 148.061 32.916 148.597 32.916C149.133 32.916 149.617 33.012 150.049 33.204C150.489 33.396 150.861 33.656 151.165 33.984C151.469 34.304 151.693 34.672 151.837 35.088L150.829 35.508C150.637 35.004 150.349 34.624 149.965 34.368C149.581 34.104 149.129 33.972 148.609 33.972C148.289 33.972 148.005 34.028 147.757 34.14C147.517 34.244 147.329 34.4 147.193 34.608C147.065 34.808 147.001 35.048 147.001 35.328C147.001 35.656 147.105 35.948 147.313 36.204C147.521 36.46 147.837 36.656 148.261 36.792L149.761 37.236C150.465 37.452 150.997 37.76 151.357 38.16C151.717 38.56 151.897 39.056 151.897 39.648C151.897 40.136 151.769 40.568 151.513 40.944C151.265 41.32 150.917 41.616 150.469 41.832C150.029 42.04 149.517 42.144 148.933 42.144ZM156.265 42.072C155.633 42.072 155.145 41.892 154.801 41.532C154.465 41.172 154.297 40.664 154.297 40.008V36.6H153.121V35.532H153.361C153.649 35.532 153.877 35.444 154.045 35.268C154.213 35.092 154.297 34.86 154.297 34.572V34.044H155.413V35.532H156.865V36.6H155.413V39.972C155.413 40.188 155.445 40.376 155.509 40.536C155.581 40.696 155.697 40.824 155.857 40.92C156.017 41.008 156.229 41.052 156.493 41.052C156.549 41.052 156.617 41.048 156.697 41.04C156.785 41.032 156.865 41.024 156.937 41.016V42C156.833 42.024 156.717 42.04 156.589 42.048C156.461 42.064 156.353 42.072 156.265 42.072ZM160.837 42.144C160.373 42.144 159.953 42.036 159.577 41.82C159.209 41.604 158.921 41.304 158.713 40.92C158.513 40.528 158.413 40.08 158.413 39.576V35.532H159.529V39.456C159.529 39.776 159.593 40.056 159.721 40.296C159.857 40.536 160.041 40.724 160.273 40.86C160.513 40.996 160.785 41.064 161.089 41.064C161.393 41.064 161.661 40.996 161.893 40.86C162.133 40.724 162.317 40.528 162.445 40.272C162.581 40.016 162.649 39.712 162.649 39.36V35.532H163.777V42H162.685V40.74L162.865 40.848C162.713 41.256 162.453 41.576 162.085 41.808C161.725 42.032 161.309 42.144 160.837 42.144ZM168.596 42.144C167.988 42.144 167.44 41.996 166.952 41.7C166.472 41.404 166.092 41 165.812 40.488C165.532 39.976 165.392 39.404 165.392 38.772C165.392 38.124 165.532 37.548 165.812 37.044C166.092 36.532 166.472 36.128 166.952 35.832C167.44 35.536 167.988 35.388 168.596 35.388C169.132 35.388 169.608 35.504 170.024 35.736C170.44 35.96 170.768 36.264 171.008 36.648L170.828 36.924V32.916H171.956V42H170.864V40.62L171.008 40.812C170.784 41.236 170.456 41.564 170.024 41.796C169.6 42.028 169.124 42.144 168.596 42.144ZM168.692 41.064C169.1 41.064 169.464 40.964 169.784 40.764C170.104 40.564 170.356 40.292 170.54 39.948C170.732 39.596 170.828 39.204 170.828 38.772C170.828 38.332 170.732 37.94 170.54 37.596C170.356 37.244 170.104 36.968 169.784 36.768C169.464 36.568 169.1 36.468 168.692 36.468C168.292 36.468 167.928 36.572 167.6 36.78C167.28 36.98 167.028 37.252 166.844 37.596C166.66 37.932 166.568 38.324 166.568 38.772C166.568 39.204 166.66 39.596 166.844 39.948C167.028 40.292 167.28 40.564 167.6 40.764C167.92 40.964 168.284 41.064 168.692 41.064ZM173.833 42V35.532H174.949V42H173.833ZM173.833 34.5V33.06H174.949V34.5H173.833ZM179.903 42.144C179.279 42.144 178.715 42 178.211 41.712C177.707 41.416 177.307 41.012 177.011 40.5C176.715 39.988 176.567 39.408 176.567 38.76C176.567 38.112 176.711 37.536 176.999 37.032C177.295 36.528 177.695 36.128 178.199 35.832C178.703 35.536 179.271 35.388 179.903 35.388C180.527 35.388 181.091 35.536 181.595 35.832C182.099 36.12 182.495 36.516 182.783 37.02C183.079 37.524 183.227 38.104 183.227 38.76C183.227 39.416 183.075 40 182.771 40.512C182.467 41.016 182.063 41.416 181.559 41.712C181.063 42 180.511 42.144 179.903 42.144ZM179.903 41.064C180.303 41.064 180.663 40.964 180.983 40.764C181.311 40.564 181.567 40.288 181.751 39.936C181.943 39.584 182.039 39.192 182.039 38.76C182.039 38.32 181.943 37.932 181.751 37.596C181.567 37.252 181.311 36.98 180.983 36.78C180.663 36.572 180.303 36.468 179.903 36.468C179.495 36.468 179.127 36.572 178.799 36.78C178.479 36.98 178.223 37.252 178.031 37.596C177.839 37.932 177.743 38.32 177.743 38.76C177.743 39.192 177.839 39.584 178.031 39.936C178.223 40.288 178.479 40.564 178.799 40.764C179.127 40.964 179.495 41.064 179.903 41.064Z" fill="#B6F09C" />
                                </svg>